<?xml version="1.0" standalone="no"?>
<!DOCTYPE svg PUBLIC "-//W3C//DTD SVG 1.1//EN" "http://www.w3.org/Graphics/SVG/1.1/DTD/svg11.dtd" >
<svg xmlns="http://www.w3.org/2000/svg">
<metadata>Generated by IcoMoon</metadata>
<defs>
<font id="icomoon" horiz-adv-x="1024">
<font-face units-per-em="1024" ascent="896" descent="-128" />
<missing-glyph horiz-adv-x="1024" />
<glyph unicode="&#x20;" d="" />
<glyph unicode="&#x78;" glyph-name="x" horiz-adv-x="1001" d="M281 543q-27-1-53-1h-83q-18 0-36.5-6t-32.5-18.5-23-32-9-45.5v-76h912v41q0 16-0.5 30t-0.5 18q0 13-5 29t-17 29.5-31.5 22.5-49.5 9h-133v-97h-438v97zM955 310v-52q0-23 0.5-52t0.5-58-10.5-47.5-26-30-33-16-31.5-4.5q-14-1-29.5-0.5t-29.5 0.5h-32l-45 128h-439l-44-128h-63q-20 0-45 1-25 0-41 9.5t-25.5 23-13.5 29.5-4 30v167h911zM163 247q-12 0-21-8.5t-9-21.5 9-21.5 21-8.5q13 0 22 8.5t9 21.5-9 21.5-22 8.5zM316 123q-8-26-14-48-5-19-10.5-37t-7.5-25-3-15 1-14.5 9.5-10.5 21.5-4h365q23 0 34 12t2 38q-5 13-9.5 30.5t-9.5 34.5q-5 19-11 39h-368zM336 498v228q0 11 2.5 23t10 21.5 20.5 15.5 34 6h188q31 0 51.5-14.5t20.5-52.5v-227h-327z" />
<glyph unicode="&#x79;" glyph-name="x2" horiz-adv-x="1001" d="M281 543q-27-1-53-1h-83q-18 0-36.5-6t-32.5-18.5-23-32-9-45.5v-76h912v41q0 16-0.5 30t-0.5 18q0 13-5 29t-17 29.5-31.5 22.5-49.5 9h-133v-97h-438v97zM955 310v-52q0-23 0.5-52t0.5-58-10.5-47.5-26-30-33-16-31.5-4.5q-14-1-29.5-0.5t-29.5 0.5h-32l-45 128h-439l-44-128h-63q-20 0-45 1-25 0-41 9.5t-25.5 23-13.5 29.5-4 30v167h911zM163 247q-12 0-21-8.5t-9-21.5 9-21.5 21-8.5q13 0 22 8.5t9 21.5-9 21.5-22 8.5zM316 123q-8-26-14-48-5-19-10.5-37t-7.5-25-3-15 1-14.5 9.5-10.5 21.5-4h365q23 0 34 12t2 38q-5 13-9.5 30.5t-9.5 34.5q-5 19-11 39h-368zM336 498v228q0 11 2.5 23t10 21.5 20.5 15.5 34 6h188q31 0 51.5-14.5t20.5-52.5v-227h-327z" />
<glyph unicode="&#xe506;" glyph-name="xiazai" horiz-adv-x="1177" d="M862.495 56.794v0c-17.844 0-32.327 14.466-32.327 32.327s14.482 32.327 32.327 32.327h9.214c110.574 0 183.569 122.778 183.569 232.949 0 121.065-105.321 218.498-225.384 221.019l-23.308 0.501-6.902 22.257c-33.362 107.908-105.5 171.172-233.903 171.172-160.196 0-263.82-118.769-263.82-276.234l0.243-0.372 2.618-29.644-29.337-5.059c-71.491-12.284-128.483-85.618-128.483-166.904 0-91.987 71.248-169.685 154.394-169.685h28.738c17.844 0 32.327-14.466 32.327-32.327s-14.483-32.327-32.327-32.327h-28.738c-118.204 0-218.062 107.309-218.062 234.338 0 103.77 64.832 195.384 154.637 224.108 11.217 180.466 141.528 318.761 327.812 318.761 146.377 0 243.292-75.775 288.389-195.417 146.183-15.728 263.109-134.965 263.109-284.186 0-138.812-93.167-293.254-254.801-297.505v-0.097zM599.854 3.422l103.77 114.438c9.036 9.44 23.647 9.44 32.666 0l8.147-6.498c9.035-9.472 9.035-20.706 0-30.144l-119.642-131.069c-0.161-0.194-0.226-0.372-0.372-0.533l-8.179-8.567c-4.477-4.735-10.441-7.080-16.389-7.031-5.964-0.033-11.896 2.312-16.455 7.031l-8.179 8.567c-0.161 0.162-0.194 0.372-0.339 0.533l-116.684 129.050c-9.036 9.44-9.036 24.714 0 34.186l8.147 4.478c9.036 9.44 23.679 7.418 32.699-2.020l100.811-112.417zM600.193 397.181c17.844 0 32.327-14.482 32.327-32.327v-355.597c0-17.86-14.483-32.327-32.327-32.327s-32.327 14.466-32.327 32.327v355.597c0 17.844 14.466 32.327 32.327 32.327z" />
<glyph unicode="&#xe507;" glyph-name="xiazai2" horiz-adv-x="1177" d="M862.495 56.794v0c-17.844 0-32.327 14.466-32.327 32.327s14.482 32.327 32.327 32.327h9.214c110.574 0 183.569 122.778 183.569 232.949 0 121.065-105.321 218.498-225.384 221.019l-23.308 0.501-6.902 22.257c-33.362 107.908-105.5 171.172-233.903 171.172-160.196 0-263.82-118.769-263.82-276.234l0.243-0.372 2.618-29.644-29.337-5.059c-71.491-12.284-128.483-85.618-128.483-166.904 0-91.987 71.248-169.685 154.394-169.685h28.738c17.844 0 32.327-14.466 32.327-32.327s-14.483-32.327-32.327-32.327h-28.738c-118.204 0-218.062 107.309-218.062 234.338 0 103.77 64.832 195.384 154.637 224.108 11.217 180.466 141.528 318.761 327.812 318.761 146.377 0 243.292-75.775 288.389-195.417 146.183-15.728 263.109-134.965 263.109-284.186 0-138.812-93.167-293.254-254.801-297.505v-0.097zM599.854 3.422l103.77 114.438c9.036 9.44 23.647 9.44 32.666 0l8.147-6.498c9.035-9.472 9.035-20.706 0-30.144l-119.642-131.069c-0.161-0.194-0.226-0.372-0.372-0.533l-8.179-8.567c-4.477-4.735-10.441-7.080-16.389-7.031-5.964-0.033-11.896 2.312-16.455 7.031l-8.179 8.567c-0.161 0.162-0.194 0.372-0.339 0.533l-116.684 129.050c-9.036 9.44-9.036 24.714 0 34.186l8.147 4.478c9.036 9.44 23.679 7.418 32.699-2.020l100.811-112.417zM600.193 397.181c17.844 0 32.327-14.482 32.327-32.327v-355.597c0-17.86-14.483-32.327-32.327-32.327s-32.327 14.466-32.327 32.327v355.597c0 17.844 14.466 32.327 32.327 32.327z" />
<glyph unicode="&#xe508;" glyph-name="xiazai3" horiz-adv-x="1177" d="M862.495 56.794v0c-17.844 0-32.327 14.466-32.327 32.327s14.482 32.327 32.327 32.327h9.214c110.574 0 183.569 122.778 183.569 232.949 0 121.065-105.321 218.498-225.384 221.019l-23.308 0.501-6.902 22.257c-33.362 107.908-105.5 171.172-233.903 171.172-160.196 0-263.82-118.769-263.82-276.234l0.243-0.372 2.618-29.644-29.337-5.059c-71.491-12.284-128.483-85.618-128.483-166.904 0-91.987 71.248-169.685 154.394-169.685h28.738c17.844 0 32.327-14.466 32.327-32.327s-14.483-32.327-32.327-32.327h-28.738c-118.204 0-218.062 107.309-218.062 234.338 0 103.77 64.832 195.384 154.637 224.108 11.217 180.466 141.528 318.761 327.812 318.761 146.377 0 243.292-75.775 288.389-195.417 146.183-15.728 263.109-134.965 263.109-284.186 0-138.812-93.167-293.254-254.801-297.505v-0.097zM599.854 3.422l103.77 114.438c9.036 9.44 23.647 9.44 32.666 0l8.147-6.498c9.035-9.472 9.035-20.706 0-30.144l-119.642-131.069c-0.161-0.194-0.226-0.372-0.372-0.533l-8.179-8.567c-4.477-4.735-10.441-7.080-16.389-7.031-5.964-0.033-11.896 2.312-16.455 7.031l-8.179 8.567c-0.161 0.162-0.194 0.372-0.339 0.533l-116.684 129.050c-9.036 9.44-9.036 24.714 0 34.186l8.147 4.478c9.036 9.44 23.679 7.418 32.699-2.020l100.811-112.417zM600.193 397.181c17.844 0 32.327-14.482 32.327-32.327v-355.597c0-17.86-14.483-32.327-32.327-32.327s-32.327 14.466-32.327 32.327v355.597c0 17.844 14.466 32.327 32.327 32.327z" />
<glyph unicode="&#xe604;" glyph-name="rank" d="M305.835 778.923h-99.328c-31.403 0-54.955-23.552-54.955-54.955v-695.979c0-31.402 23.552-54.954 54.955-54.954h99.328c31.402 0 54.954 23.552 54.954 54.954v696.321c-0.341 31.062-23.893 54.614-54.954 54.614zM194.9 724.309c0 7.168 4.438 11.606 11.606 11.606h99.328c7.168 0 11.605-4.438 11.605-11.606v-695.978c0-7.168-4.437-11.606-11.605-11.606h-99.328c-7.168 0-11.606 4.438-11.606 11.606v695.978zM794.623 447.829h-99.328c-31.403 0-54.955-23.552-54.955-54.954v-364.545c0-31.403 23.552-54.955 54.955-54.955h99.328c30.72 0 54.955 24.235 54.955 54.955v364.545c-0.342 31.061-23.894 54.954-54.955 54.954zM683.69 392.875c0 7.168 4.437 11.605 11.605 11.605h99.328c7.168 0 11.605-4.437 11.605-11.605v-364.545c0-7.168-4.437-11.606-11.605-11.606h-99.328c-7.168 0-11.605 4.438-11.605 11.606v364.545zM550.912 613.376h-99.328c-31.403 0-54.955-23.552-54.955-54.955v-530.431c0-31.402 23.552-54.954 54.955-54.954h99.328c30.379 0 54.955 24.576 54.955 54.954v530.431c0 31.403-23.552 54.955-54.955 54.955zM439.979 558.421c0 7.168 4.437 11.606 11.605 11.606h99.328c7.168 0 11.605-4.438 11.605-11.606v-530.431c0-7.168-4.437-11.605-11.605-11.605h-99.328c-7.168 0-11.605 4.437-11.605 11.605v530.431z" />
<glyph unicode="&#xe605;" glyph-name="rank2" d="M305.835 778.923h-99.328c-31.403 0-54.955-23.552-54.955-54.955v-695.979c0-31.402 23.552-54.954 54.955-54.954h99.328c31.402 0 54.954 23.552 54.954 54.954v696.321c-0.341 31.062-23.893 54.614-54.954 54.614zM194.9 724.309c0 7.168 4.438 11.606 11.606 11.606h99.328c7.168 0 11.605-4.438 11.605-11.606v-695.978c0-7.168-4.437-11.606-11.605-11.606h-99.328c-7.168 0-11.606 4.438-11.606 11.606v695.978zM794.623 447.829h-99.328c-31.403 0-54.955-23.552-54.955-54.954v-364.545c0-31.403 23.552-54.955 54.955-54.955h99.328c30.72 0 54.955 24.235 54.955 54.955v364.545c-0.342 31.061-23.894 54.954-54.955 54.954zM683.69 392.875c0 7.168 4.437 11.605 11.605 11.605h99.328c7.168 0 11.605-4.437 11.605-11.605v-364.545c0-7.168-4.437-11.606-11.605-11.606h-99.328c-7.168 0-11.605 4.438-11.605 11.606v364.545zM550.912 613.376h-99.328c-31.403 0-54.955-23.552-54.955-54.955v-530.431c0-31.402 23.552-54.954 54.955-54.954h99.328c30.379 0 54.955 24.576 54.955 54.954v530.431c0 31.403-23.552 54.955-54.955 54.955zM439.979 558.421c0 7.168 4.437 11.606 11.605 11.606h99.328c7.168 0 11.605-4.438 11.605-11.606v-530.431c0-7.168-4.437-11.605-11.605-11.605h-99.328c-7.168 0-11.605 4.437-11.605 11.605v530.431z" />
<glyph unicode="&#xe606;" glyph-name="kecheng" d="M858.161 768.939h-221.046c-51.595 0-97.478-24.871-126.313-63.252-28.833 38.38-74.721 63.252-126.314 63.252h-221.044c-34.815 0-63.157-28.325-63.157-63.155v-584.198c0-34.814 28.311-63.157 63.157-63.157h232.147c30.994-30.282 72.223-47.364 115.213-47.364 42.993 0 84.219 17.082 115.214 47.364h232.148c34.816 0 63.155 28.313 63.155 63.157v584.198c0 34.814-28.305 63.155-63.155 63.155h-0.005zM612.352 106.047c-9.222 0-17.979-4.009-23.991-11.038-19.768-23.068-48.045-36.327-77.557-36.327-29.51 0-57.792 13.257-77.556 36.327-6.014 7.033-14.769 11.038-23.991 11.038h-263.397v615.277h238.631c52.242 0 98.495-58.037 98.495-110.276v-268.414c0-17.455 10.365-31.578 27.819-31.578 17.452 0 29.696 14.125 29.696 31.578v268.414c0 52.241 44.374 110.276 96.612 110.276h238.634v-615.277h-263.394z" />
<glyph unicode="&#xe607;" glyph-name="kecheng2" d="M858.161 768.939h-221.046c-51.595 0-97.478-24.871-126.313-63.252-28.833 38.38-74.721 63.252-126.314 63.252h-221.044c-34.815 0-63.157-28.325-63.157-63.155v-584.198c0-34.814 28.311-63.157 63.157-63.157h232.147c30.994-30.282 72.223-47.364 115.213-47.364 42.993 0 84.219 17.082 115.214 47.364h232.148c34.816 0 63.155 28.313 63.155 63.157v584.198c0 34.814-28.305 63.155-63.155 63.155h-0.005zM612.352 106.047c-9.222 0-17.979-4.009-23.991-11.038-19.768-23.068-48.045-36.327-77.557-36.327-29.51 0-57.792 13.257-77.556 36.327-6.014 7.033-14.769 11.038-23.991 11.038h-263.397v615.277h238.631c52.242 0 98.495-58.037 98.495-110.276v-268.414c0-17.455 10.365-31.578 27.819-31.578 17.452 0 29.696 14.125 29.696 31.578v268.414c0 52.241 44.374 110.276 96.612 110.276h238.634v-615.277h-263.394z" />
<glyph unicode="&#xe608;" glyph-name="kecheng3" d="M858.161 768.939h-221.046c-51.595 0-97.478-24.871-126.313-63.252-28.833 38.38-74.721 63.252-126.314 63.252h-221.044c-34.815 0-63.157-28.325-63.157-63.155v-584.198c0-34.814 28.311-63.157 63.157-63.157h232.147c30.994-30.282 72.223-47.364 115.213-47.364 42.993 0 84.219 17.082 115.214 47.364h232.148c34.816 0 63.155 28.313 63.155 63.157v584.198c0 34.814-28.305 63.155-63.155 63.155h-0.005zM612.352 106.047c-9.222 0-17.979-4.009-23.991-11.038-19.768-23.068-48.045-36.327-77.557-36.327-29.51 0-57.792 13.257-77.556 36.327-6.014 7.033-14.769 11.038-23.991 11.038h-263.397v615.277h238.631c52.242 0 98.495-58.037 98.495-110.276v-268.414c0-17.455 10.365-31.578 27.819-31.578 17.452 0 29.696 14.125 29.696 31.578v268.414c0 52.241 44.374 110.276 96.612 110.276h238.634v-615.277h-263.394z" />
<glyph unicode="&#xe609;" glyph-name="xiaoxi" d="M516.507 601.419c-40.541 0-73.545 32.987-73.545 73.545s33.004 73.553 73.545 73.553c40.558 0 73.56-32.995 73.56-73.553s-33.003-73.545-73.56-73.545zM516.507 715.433c-22.305 0-40.444-18.155-40.444-40.469 0-22.305 18.139-40.461 40.444-40.461 22.321 0 40.461 18.155 40.461 40.461 0 22.313-18.139 40.469-40.461 40.469zM838.145-45.391h-650.879c-13.94 0-56.362 0-68.892 29.138-14.735 34.26 23.488 78.716 67.434 125.077 4.538 4.782 8.607 9.078 11.914 12.725 5.95 6.566 10.65 11.323 14.378 15.084 8.689 8.786 8.689 8.786 8.64 29.915l-0.016 175.449c0 132.501 89.657 248.67 218.025 282.507 57.773 15.245 120.002 12.068 175.943-8.931 113.648-42.721 190.014-152.666 190.014-273.576l-0.016-175.449c-0.049-21.129-0.049-21.129 8.64-29.915 3.728-3.761 8.429-8.518 14.378-15.084 3.307-3.647 7.376-7.943 11.914-12.717 43.945-46.369 82.168-90.816 67.434-125.077-12.531-29.146-54.969-29.146-68.91-29.146zM512.633 600.966c-22.143 0-44.156-2.845-65.456-8.462-113.843-30.004-193.353-133.020-193.353-250.509v-175.376c0.064-30.839-0.6-35.46-18.204-53.258-3.469-3.502-7.846-7.927-13.389-14.038-3.436-3.802-7.684-8.275-12.4-13.26-16.923-17.847-68.406-72.167-61.063-89.244 1.459-3.388 11.201-9.126 38.499-9.126h650.879c27.298 0 37.056 5.739 38.499 9.126 7.36 17.085-44.124 71.397-61.046 89.244-4.717 4.985-8.964 9.458-12.4 13.26-5.544 6.111-9.921 10.537-13.39 14.038-17.604 17.798-18.269 22.419-18.204 53.258v175.376c0 107.205-67.725 204.7-168.552 242.598-28.921 10.87-59.347 16.373-90.42 16.373zM512.714-146.615c-67.758 0-126.551 48.168-139.811 114.531l-3.955 19.785h287.533l-3.955-19.785c-13.26-66.363-72.054-114.531-139.811-114.531zM411.305-45.383c16.518-40.469 56.394-68.147 101.41-68.147s84.891 27.678 101.41 68.147h-202.819z" />
<glyph unicode="&#xe60a;" glyph-name="xiaoxi2" d="M516.507 601.419c-40.541 0-73.545 32.987-73.545 73.545s33.004 73.553 73.545 73.553c40.558 0 73.56-32.995 73.56-73.553s-33.003-73.545-73.56-73.545zM516.507 715.433c-22.305 0-40.444-18.155-40.444-40.469 0-22.305 18.139-40.461 40.444-40.461 22.321 0 40.461 18.155 40.461 40.461 0 22.313-18.139 40.469-40.461 40.469zM838.145-45.391h-650.879c-13.94 0-56.362 0-68.892 29.138-14.735 34.26 23.488 78.716 67.434 125.077 4.538 4.782 8.607 9.078 11.914 12.725 5.95 6.566 10.65 11.323 14.378 15.084 8.689 8.786 8.689 8.786 8.64 29.915l-0.016 175.449c0 132.501 89.657 248.67 218.025 282.507 57.773 15.245 120.002 12.068 175.943-8.931 113.648-42.721 190.014-152.666 190.014-273.576l-0.016-175.449c-0.049-21.129-0.049-21.129 8.64-29.915 3.728-3.761 8.429-8.518 14.378-15.084 3.307-3.647 7.376-7.943 11.914-12.717 43.945-46.369 82.168-90.816 67.434-125.077-12.531-29.146-54.969-29.146-68.91-29.146zM512.633 600.966c-22.143 0-44.156-2.845-65.456-8.462-113.843-30.004-193.353-133.020-193.353-250.509v-175.376c0.064-30.839-0.6-35.46-18.204-53.258-3.469-3.502-7.846-7.927-13.389-14.038-3.436-3.802-7.684-8.275-12.4-13.26-16.923-17.847-68.406-72.167-61.063-89.244 1.459-3.388 11.201-9.126 38.499-9.126h650.879c27.298 0 37.056 5.739 38.499 9.126 7.36 17.085-44.124 71.397-61.046 89.244-4.717 4.985-8.964 9.458-12.4 13.26-5.544 6.111-9.921 10.537-13.39 14.038-17.604 17.798-18.269 22.419-18.204 53.258v175.376c0 107.205-67.725 204.7-168.552 242.598-28.921 10.87-59.347 16.373-90.42 16.373zM512.714-146.615c-67.758 0-126.551 48.168-139.811 114.531l-3.955 19.785h287.533l-3.955-19.785c-13.26-66.363-72.054-114.531-139.811-114.531zM411.305-45.383c16.518-40.469 56.394-68.147 101.41-68.147s84.891 27.678 101.41 68.147h-202.819z" />
<glyph unicode="&#xe60b;" glyph-name="xiaoxi3" d="M516.507 601.419c-40.541 0-73.545 32.987-73.545 73.545s33.004 73.553 73.545 73.553c40.558 0 73.56-32.995 73.56-73.553s-33.003-73.545-73.56-73.545zM516.507 715.433c-22.305 0-40.444-18.155-40.444-40.469 0-22.305 18.139-40.461 40.444-40.461 22.321 0 40.461 18.155 40.461 40.461 0 22.313-18.139 40.469-40.461 40.469zM838.145-45.391h-650.879c-13.94 0-56.362 0-68.892 29.138-14.735 34.26 23.488 78.716 67.434 125.077 4.538 4.782 8.607 9.078 11.914 12.725 5.95 6.566 10.65 11.323 14.378 15.084 8.689 8.786 8.689 8.786 8.64 29.915l-0.016 175.449c0 132.501 89.657 248.67 218.025 282.507 57.773 15.245 120.002 12.068 175.943-8.931 113.648-42.721 190.014-152.666 190.014-273.576l-0.016-175.449c-0.049-21.129-0.049-21.129 8.64-29.915 3.728-3.761 8.429-8.518 14.378-15.084 3.307-3.647 7.376-7.943 11.914-12.717 43.945-46.369 82.168-90.816 67.434-125.077-12.531-29.146-54.969-29.146-68.91-29.146zM512.633 600.966c-22.143 0-44.156-2.845-65.456-8.462-113.843-30.004-193.353-133.020-193.353-250.509v-175.376c0.064-30.839-0.6-35.46-18.204-53.258-3.469-3.502-7.846-7.927-13.389-14.038-3.436-3.802-7.684-8.275-12.4-13.26-16.923-17.847-68.406-72.167-61.063-89.244 1.459-3.388 11.201-9.126 38.499-9.126h650.879c27.298 0 37.056 5.739 38.499 9.126 7.36 17.085-44.124 71.397-61.046 89.244-4.717 4.985-8.964 9.458-12.4 13.26-5.544 6.111-9.921 10.537-13.39 14.038-17.604 17.798-18.269 22.419-18.204 53.258v175.376c0 107.205-67.725 204.7-168.552 242.598-28.921 10.87-59.347 16.373-90.42 16.373zM512.714-146.615c-67.758 0-126.551 48.168-139.811 114.531l-3.955 19.785h287.533l-3.955-19.785c-13.26-66.363-72.054-114.531-139.811-114.531zM411.305-45.383c16.518-40.469 56.394-68.147 101.41-68.147s84.891 27.678 101.41 68.147h-202.819z" />
<glyph unicode="&#xe60c;" glyph-name="xiaoxi4" d="M516.507 601.419c-40.541 0-73.545 32.987-73.545 73.545s33.004 73.553 73.545 73.553c40.558 0 73.56-32.995 73.56-73.553s-33.003-73.545-73.56-73.545zM516.507 715.433c-22.305 0-40.444-18.155-40.444-40.469 0-22.305 18.139-40.461 40.444-40.461 22.321 0 40.461 18.155 40.461 40.461 0 22.313-18.139 40.469-40.461 40.469zM838.145-45.391h-650.879c-13.94 0-56.362 0-68.892 29.138-14.735 34.26 23.488 78.716 67.434 125.077 4.538 4.782 8.607 9.078 11.914 12.725 5.95 6.566 10.65 11.323 14.378 15.084 8.689 8.786 8.689 8.786 8.64 29.915l-0.016 175.449c0 132.501 89.657 248.67 218.025 282.507 57.773 15.245 120.002 12.068 175.943-8.931 113.648-42.721 190.014-152.666 190.014-273.576l-0.016-175.449c-0.049-21.129-0.049-21.129 8.64-29.915 3.728-3.761 8.429-8.518 14.378-15.084 3.307-3.647 7.376-7.943 11.914-12.717 43.945-46.369 82.168-90.816 67.434-125.077-12.531-29.146-54.969-29.146-68.91-29.146zM512.633 600.966c-22.143 0-44.156-2.845-65.456-8.462-113.843-30.004-193.353-133.020-193.353-250.509v-175.376c0.064-30.839-0.6-35.46-18.204-53.258-3.469-3.502-7.846-7.927-13.389-14.038-3.436-3.802-7.684-8.275-12.4-13.26-16.923-17.847-68.406-72.167-61.063-89.244 1.459-3.388 11.201-9.126 38.499-9.126h650.879c27.298 0 37.056 5.739 38.499 9.126 7.36 17.085-44.124 71.397-61.046 89.244-4.717 4.985-8.964 9.458-12.4 13.26-5.544 6.111-9.921 10.537-13.39 14.038-17.604 17.798-18.269 22.419-18.204 53.258v175.376c0 107.205-67.725 204.7-168.552 242.598-28.921 10.87-59.347 16.373-90.42 16.373zM512.714-146.615c-67.758 0-126.551 48.168-139.811 114.531l-3.955 19.785h287.533l-3.955-19.785c-13.26-66.363-72.054-114.531-139.811-114.531zM411.305-45.383c16.518-40.469 56.394-68.147 101.41-68.147s84.891 27.678 101.41 68.147h-202.819z" />
<glyph unicode="&#xe60d;" glyph-name="kecheng4" d="M858.161 768.939h-221.046c-51.595 0-97.478-24.871-126.313-63.252-28.833 38.38-74.721 63.252-126.314 63.252h-221.044c-34.815 0-63.157-28.325-63.157-63.155v-584.198c0-34.814 28.311-63.157 63.157-63.157h232.147c30.994-30.282 72.223-47.364 115.213-47.364 42.993 0 84.219 17.082 115.214 47.364h232.148c34.816 0 63.155 28.313 63.155 63.157v584.198c0 34.814-28.305 63.155-63.155 63.155h-0.005zM612.352 106.047c-9.222 0-17.979-4.009-23.991-11.038-19.768-23.068-48.045-36.327-77.557-36.327-29.51 0-57.792 13.257-77.556 36.327-6.014 7.033-14.769 11.038-23.991 11.038h-263.397v615.277h238.631c52.242 0 98.495-58.037 98.495-110.276v-268.414c0-17.455 10.365-31.578 27.819-31.578 17.452 0 29.696 14.125 29.696 31.578v268.414c0 52.241 44.374 110.276 96.612 110.276h238.634v-615.277h-263.394z" />
<glyph unicode="&#xe60e;" glyph-name="shoucang1" d="M736.251 856.637c-88.105 0-169.784-44.344-224.051-117.274-53.673 72.934-135.941 117.274-224.046 117.274-158.694 0-287.642-141.194-287.642-314.481 0-103.27 46.090-176.205 83.43-234.547 107.94-169.789 379.832-380.411 391.496-389.166 9.958-7.998 22.751-12.836 36.674-12.836 0.029 0 0.058 0 0.087 0h-0.005c12.836 0 25.672 4.086 36.756 12.836 11.674 8.755 282.977 219.965 391.501 389.166 37.345 58.348 83.436 131.277 83.436 234.547 0.005 173.286-128.937 314.481-287.636 314.481zM866.355 309.361c-99.763-140.027-310.973-299.894-321.48-307.476-9.917-7.588-21.591-11.674-32.676-11.674-11.668 0-22.753 3.502-32.671 11.674-10.506 7.578-217.631 169.196-321.485 313.308-33.254 52.511-86.349 117.857-86.349 210.038 0 155.203 86.349 264.305 228.132 264.305 78.766 0 164.536-75.264 212.372-140.611 48.43 65.347 133.612 140.611 212.378 140.611 142.362 0 234.552-109.102 234.552-264.305 0-92.175-58.936-163.942-92.774-215.869z" />
<glyph unicode="&#xe60f;" glyph-name="list" d="M267.685 604.503h-23.591c-12.031 0-22.165-9.166-22.165-20.675 0-11.373 10.134-20.69 22.165-20.69h23.591c12.031 0 22.328 9.317 22.328 20.69-0.001 11.51-10.298 20.675-22.328 20.675zM779.6 205.435h-374.941c-12.047 0-22.179-9.604-22.179-20.977 0-11.509 10.133-20.961 22.179-20.961h374.941c12.338 0 22.471 9.452 22.471 20.961 0 11.373-10.132 20.977-22.471 20.977zM267.685 205.435h-23.591c-12.031 0-22.165-9.604-22.165-20.977 0-11.509 10.134-20.961 22.165-20.961h23.591c12.031 0 22.328 9.452 22.328 20.961-0.001 11.373-10.298 20.977-22.328 20.977zM404.658 563.139h374.941c12.338 0 22.471 9.317 22.471 20.69 0 11.509-10.133 20.675-22.471 20.675h-374.941c-12.047 0-22.179-9.166-22.179-20.675-0.001-11.373 10.132-20.69 22.179-20.69zM267.685 466.553h-23.591c-12.031 0-22.165-9.166-22.165-20.673 0-11.374 10.134-20.69 22.165-20.69h23.591c12.031 0 22.328 9.316 22.328 20.69-0.001 11.507-10.298 20.673-22.328 20.673zM779.6 466.553h-374.941c-12.047 0-22.179-9.166-22.179-20.673 0-11.374 10.133-20.69 22.179-20.69h374.941c12.338 0 22.471 9.316 22.471 20.69 0 11.507-10.132 20.673-22.471 20.673zM267.685 328.602h-23.591c-12.031 0-22.165-9.166-22.165-20.675 0-11.373 10.134-20.688 22.165-20.688h23.591c12.031 0 22.328 9.316 22.328 20.688-0.001 11.51-10.298 20.675-22.328 20.675zM779.6 328.602h-374.941c-12.047 0-22.179-9.166-22.179-20.675 0-11.373 10.133-20.688 22.179-20.688h374.941c12.338 0 22.471 9.316 22.471 20.688 0 11.51-10.132 20.675-22.471 20.675z" />
<glyph unicode="&#xe610;" glyph-name="list2" d="M267.685 604.503h-23.591c-12.031 0-22.165-9.166-22.165-20.675 0-11.373 10.134-20.69 22.165-20.69h23.591c12.031 0 22.328 9.317 22.328 20.69-0.001 11.51-10.298 20.675-22.328 20.675zM779.6 205.435h-374.941c-12.047 0-22.179-9.604-22.179-20.977 0-11.509 10.133-20.961 22.179-20.961h374.941c12.338 0 22.471 9.452 22.471 20.961 0 11.373-10.132 20.977-22.471 20.977zM267.685 205.435h-23.591c-12.031 0-22.165-9.604-22.165-20.977 0-11.509 10.134-20.961 22.165-20.961h23.591c12.031 0 22.328 9.452 22.328 20.961-0.001 11.373-10.298 20.977-22.328 20.977zM404.658 563.139h374.941c12.338 0 22.471 9.317 22.471 20.69 0 11.509-10.133 20.675-22.471 20.675h-374.941c-12.047 0-22.179-9.166-22.179-20.675-0.001-11.373 10.132-20.69 22.179-20.69zM267.685 466.553h-23.591c-12.031 0-22.165-9.166-22.165-20.673 0-11.374 10.134-20.69 22.165-20.69h23.591c12.031 0 22.328 9.316 22.328 20.69-0.001 11.507-10.298 20.673-22.328 20.673zM779.6 466.553h-374.941c-12.047 0-22.179-9.166-22.179-20.673 0-11.374 10.133-20.69 22.179-20.69h374.941c12.338 0 22.471 9.316 22.471 20.69 0 11.507-10.132 20.673-22.471 20.673zM267.685 328.602h-23.591c-12.031 0-22.165-9.166-22.165-20.675 0-11.373 10.134-20.688 22.165-20.688h23.591c12.031 0 22.328 9.316 22.328 20.688-0.001 11.51-10.298 20.675-22.328 20.675zM779.6 328.602h-374.941c-12.047 0-22.179-9.166-22.179-20.675 0-11.373 10.133-20.688 22.179-20.688h374.941c12.338 0 22.471 9.316 22.471 20.688 0 11.51-10.132 20.675-22.471 20.675z" />
<glyph unicode="&#xe611;" glyph-name="list3" d="M267.685 604.503h-23.591c-12.031 0-22.165-9.166-22.165-20.675 0-11.373 10.134-20.69 22.165-20.69h23.591c12.031 0 22.328 9.317 22.328 20.69-0.001 11.51-10.298 20.675-22.328 20.675zM779.6 205.435h-374.941c-12.047 0-22.179-9.604-22.179-20.977 0-11.509 10.133-20.961 22.179-20.961h374.941c12.338 0 22.471 9.452 22.471 20.961 0 11.373-10.132 20.977-22.471 20.977zM267.685 205.435h-23.591c-12.031 0-22.165-9.604-22.165-20.977 0-11.509 10.134-20.961 22.165-20.961h23.591c12.031 0 22.328 9.452 22.328 20.961-0.001 11.373-10.298 20.977-22.328 20.977zM404.658 563.139h374.941c12.338 0 22.471 9.317 22.471 20.69 0 11.509-10.133 20.675-22.471 20.675h-374.941c-12.047 0-22.179-9.166-22.179-20.675-0.001-11.373 10.132-20.69 22.179-20.69zM267.685 466.553h-23.591c-12.031 0-22.165-9.166-22.165-20.673 0-11.374 10.134-20.69 22.165-20.69h23.591c12.031 0 22.328 9.316 22.328 20.69-0.001 11.507-10.298 20.673-22.328 20.673zM779.6 466.553h-374.941c-12.047 0-22.179-9.166-22.179-20.673 0-11.374 10.133-20.69 22.179-20.69h374.941c12.338 0 22.471 9.316 22.471 20.69 0 11.507-10.132 20.673-22.471 20.673zM267.685 328.602h-23.591c-12.031 0-22.165-9.166-22.165-20.675 0-11.373 10.134-20.688 22.165-20.688h23.591c12.031 0 22.328 9.316 22.328 20.688-0.001 11.51-10.298 20.675-22.328 20.675zM779.6 328.602h-374.941c-12.047 0-22.179-9.166-22.179-20.675 0-11.373 10.133-20.688 22.179-20.688h374.941c12.338 0 22.471 9.316 22.471 20.688 0 11.51-10.132 20.675-22.471 20.675z" />
<glyph unicode="&#xe612;" glyph-name="checkedon" d="M511.997 833.619c-248.317 0-449.617-201.303-449.617-449.622 0-248.317 201.301-449.617 449.617-449.617 248.322 0 449.622 201.301 449.622 449.617 0 248.32-201.301 449.622-449.622 449.622zM769.1 530.476l-308.247-301.869c-1.563-2.572-3.441-5.206-5.967-7.729l-14.453-14.458c-7.974-7.97-17.38-11.522-20.989-7.911l-146.804 153.625c-3.609 3.604-0.053 12.995 7.92 20.984l14.444 14.449c7.989 7.984 17.382 11.532 20.982 7.928l110.045-115.154 299.714 293.496c7.974 7.972 20.92 7.972 28.902 0l14.453-14.453c7.973-7.984 7.973-20.926-0.001-28.907z" />
<glyph unicode="&#xe613;" glyph-name="checkedon2" d="M511.997 833.619c-248.317 0-449.617-201.303-449.617-449.622 0-248.317 201.301-449.617 449.617-449.617 248.322 0 449.622 201.301 449.622 449.617 0 248.32-201.301 449.622-449.622 449.622zM769.1 530.476l-308.247-301.869c-1.563-2.572-3.441-5.206-5.967-7.729l-14.453-14.458c-7.974-7.97-17.38-11.522-20.989-7.911l-146.804 153.625c-3.609 3.604-0.053 12.995 7.92 20.984l14.444 14.449c7.989 7.984 17.382 11.532 20.982 7.928l110.045-115.154 299.714 293.496c7.974 7.972 20.92 7.972 28.902 0l14.453-14.453c7.973-7.984 7.973-20.926-0.001-28.907z" />
<glyph unicode="&#xe614;" glyph-name="zhuanfa1" d="M870.263 60.587s0-52.767-52.77-52.767h-633.217s-52.766 0-52.766 52.767v422.124c0 52.769 52.767 52.769 52.767 52.769h158.304l52.77 52.764h-263.841c-29.94 0-52.77-23.496-52.77-52.764l-0.154-527.555c0-29.27 24.268-53.074 54.207-53.074l737.467 0.201c29.883 0 52.766 23.499 52.766 52.768v369.362l-52.767-52.766v-263.828zM969.717 537.385l-266.266 205.806c-4.893 3.762-11.386 4.38-16.897 1.75-5.463-2.675-8.97-8.191-8.97-14.271v-123.256c-101.055-3.042-181.955-41.535-240.599-101.927-104.553-107.438-94.298-264.653-94.044-271.247 0.258-8.452 7.112-15.148 15.617-15.358h0.356c8.348 0 15.306 6.392 15.976 14.688 0.617 8.606 13.604 207.663 302.694 214.723v-129.29c0-6.028 3.507-11.595 8.97-14.27 2.056-1.026 4.48-1.626 7.043-1.626 3.73 0 7.163 1.271 9.889 3.404l-0.035-0.027 266.266 205.804c3.77 2.937 6.173 7.474 6.181 12.573v0.001c-0.001 4.85-2.319 9.482-6.182 12.525zM709.586 351.521v112.896c0 8.759-7.161 15.926-16.026 15.926-170.365 0-253.639-62.609-300.221-124.444 12.986 42.303 29.063 88.889 66.682 127.531 55.45 57.042 134.087 92.445 233.541 92.445 8.864 0 16.025 7.111 16.025 15.871v106.359l224.21-173.244-224.21-173.34z" />
<glyph unicode="&#xe615;" glyph-name="checkedon3" d="M511.997 833.619c-248.317 0-449.617-201.303-449.617-449.622 0-248.317 201.301-449.617 449.617-449.617 248.322 0 449.622 201.301 449.622 449.617 0 248.32-201.301 449.622-449.622 449.622zM769.1 530.476l-308.247-301.869c-1.563-2.572-3.441-5.206-5.967-7.729l-14.453-14.458c-7.974-7.97-17.38-11.522-20.989-7.911l-146.804 153.625c-3.609 3.604-0.053 12.995 7.92 20.984l14.444 14.449c7.989 7.984 17.382 11.532 20.982 7.928l110.045-115.154 299.714 293.496c7.974 7.972 20.92 7.972 28.902 0l14.453-14.453c7.973-7.984 7.973-20.926-0.001-28.907z" />
<glyph unicode="&#xe616;" glyph-name="zhuanfa12" d="M870.263 60.587s0-52.767-52.77-52.767h-633.217s-52.766 0-52.766 52.767v422.124c0 52.769 52.767 52.769 52.767 52.769h158.304l52.77 52.764h-263.841c-29.94 0-52.77-23.496-52.77-52.764l-0.154-527.555c0-29.27 24.268-53.074 54.207-53.074l737.467 0.201c29.883 0 52.766 23.499 52.766 52.768v369.362l-52.767-52.766v-263.828zM969.717 537.385l-266.266 205.806c-4.893 3.762-11.386 4.38-16.897 1.75-5.463-2.675-8.97-8.191-8.97-14.271v-123.256c-101.055-3.042-181.955-41.535-240.599-101.927-104.553-107.438-94.298-264.653-94.044-271.247 0.258-8.452 7.112-15.148 15.617-15.358h0.356c8.348 0 15.306 6.392 15.976 14.688 0.617 8.606 13.604 207.663 302.694 214.723v-129.29c0-6.028 3.507-11.595 8.97-14.27 2.056-1.026 4.48-1.626 7.043-1.626 3.73 0 7.163 1.271 9.889 3.404l-0.035-0.027 266.266 205.804c3.77 2.937 6.173 7.474 6.181 12.573v0.001c-0.001 4.85-2.319 9.482-6.182 12.525zM709.586 351.521v112.896c0 8.759-7.161 15.926-16.026 15.926-170.365 0-253.639-62.609-300.221-124.444 12.986 42.303 29.063 88.889 66.682 127.531 55.45 57.042 134.087 92.445 233.541 92.445 8.864 0 16.025 7.111 16.025 15.871v106.359l224.21-173.244-224.21-173.34z" />
<glyph unicode="&#xe617;" glyph-name="rank3" d="M305.835 778.923h-99.328c-31.403 0-54.955-23.552-54.955-54.955v-695.979c0-31.402 23.552-54.954 54.955-54.954h99.328c31.402 0 54.954 23.552 54.954 54.954v696.321c-0.341 31.062-23.893 54.614-54.954 54.614zM194.9 724.309c0 7.168 4.438 11.606 11.606 11.606h99.328c7.168 0 11.605-4.438 11.605-11.606v-695.978c0-7.168-4.437-11.606-11.605-11.606h-99.328c-7.168 0-11.606 4.438-11.606 11.606v695.978zM794.623 447.829h-99.328c-31.403 0-54.955-23.552-54.955-54.954v-364.545c0-31.403 23.552-54.955 54.955-54.955h99.328c30.72 0 54.955 24.235 54.955 54.955v364.545c-0.342 31.061-23.894 54.954-54.955 54.954zM683.69 392.875c0 7.168 4.437 11.605 11.605 11.605h99.328c7.168 0 11.605-4.437 11.605-11.605v-364.545c0-7.168-4.437-11.606-11.605-11.606h-99.328c-7.168 0-11.605 4.438-11.605 11.606v364.545zM550.912 613.376h-99.328c-31.403 0-54.955-23.552-54.955-54.955v-530.431c0-31.402 23.552-54.954 54.955-54.954h99.328c30.379 0 54.955 24.576 54.955 54.954v530.431c0 31.403-23.552 54.955-54.955 54.955zM439.979 558.421c0 7.168 4.437 11.606 11.605 11.606h99.328c7.168 0 11.605-4.438 11.605-11.606v-530.431c0-7.168-4.437-11.605-11.605-11.605h-99.328c-7.168 0-11.605 4.437-11.605 11.605v530.431z" />
<glyph unicode="&#xe620;" glyph-name="zhuanfa" d="M773.046 309.705c-7.708 0-13.964-6.256-13.964-13.964v-304.016h-582.209v585.635h471.189c7.689 0 13.964 6.256 13.964 13.964s-6.274 13.964-13.964 13.964h-485.153c-7.708 0-13.964-6.256-13.964-13.964v-613.562c0-7.708 6.256-13.964 13.964-13.964h610.136c7.708 0 13.964 6.256 13.964 13.964v317.98c0 7.708-6.256 13.964-13.964 13.964v0zM371.712 208.757c-2.551-7.28 1.285-15.23 8.546-17.799 1.545-0.54 3.091-0.801 4.636-0.801 5.753 0 11.134 3.575 13.182 9.328 85.066 241.571 199.121 285.77 393.104 285.77 7.708 0 13.964 6.256 13.964 13.964s-6.256 13.964-13.964 13.964c-202.51 0-329.356-48.519-419.468-304.426v0zM878.704 508.957l-112.789 112.77c-5.455 5.455-14.28 5.455-19.735 0s-5.455-14.299 0-19.754l102.884-102.884-102.884-102.903c-5.455-5.455-5.455-14.299 0-19.754 2.718-2.737 6.312-4.096 9.868-4.096 3.575 0 7.149 1.359 9.868 4.096l112.789 112.789c2.625 2.607 4.096 6.163 4.096 9.868 0 3.686-1.471 7.242-4.096 9.868v0z" />
<glyph unicode="&#xe631;" glyph-name="zhuanfa2" d="M923.648 359.424c-2.048 16.384-16.384 26.624-32.768 26.624-18.432 0-32.768-14.336-32.768-32.768v-231.424c0-16.384-6.144-30.72-16.384-40.96s-26.624-18.432-40.96-18.432h-577.536c-16.384 0-30.72 6.144-40.96 18.432-10.24 10.24-16.384 26.624-16.384 40.96v462.848c0 32.768 26.624 59.392 59.392 59.392h282.624c16.384 0 30.72 14.336 30.72 32.768s-14.336 32.768-30.72 32.768h-317.44c-51.2 0-94.208-43.008-94.208-94.208v-522.24c0-51.2 40.96-94.208 94.208-94.208h643.072c51.2 0 94.208 40.96 94.208 94.208v260.096l-4.096 6.144zM960.512 566.272l-198.656 200.704-6.144 4.096-2.048-2.048c-4.096 2.048-8.192 2.048-12.288 2.048-12.288 0-24.576-6.144-30.72-16.384s-6.144-20.48-2.048-30.72l-2.048-2.048 126.976-126.976h-122.88c-225.28-28.672-280.576-167.936-296.96-385.024 0-18.432 16.384-34.816 34.816-34.816 14.336 0 28.672 10.24 32.768 26.624l2.048 8.192c16.384 198.656 55.296 296.96 229.376 315.392h120.832l-116.736-120.832-6.144-8.192c-2.048-4.096-4.096-10.24-4.096-16.384 0-18.432 16.384-34.816 34.816-34.816 6.144 0 12.288 2.048 18.432 4.096l194.56 194.56c4.096 2.048 6.144 6.144 6.144 12.288 2.048 4.096 2.048 6.144 0 10.24z" />
<glyph unicode="&#xe632;" glyph-name="zhuanfa22" d="M923.648 359.424c-2.048 16.384-16.384 26.624-32.768 26.624-18.432 0-32.768-14.336-32.768-32.768v-231.424c0-16.384-6.144-30.72-16.384-40.96s-26.624-18.432-40.96-18.432h-577.536c-16.384 0-30.72 6.144-40.96 18.432-10.24 10.24-16.384 26.624-16.384 40.96v462.848c0 32.768 26.624 59.392 59.392 59.392h282.624c16.384 0 30.72 14.336 30.72 32.768s-14.336 32.768-30.72 32.768h-317.44c-51.2 0-94.208-43.008-94.208-94.208v-522.24c0-51.2 40.96-94.208 94.208-94.208h643.072c51.2 0 94.208 40.96 94.208 94.208v260.096l-4.096 6.144zM960.512 566.272l-198.656 200.704-6.144 4.096-2.048-2.048c-4.096 2.048-8.192 2.048-12.288 2.048-12.288 0-24.576-6.144-30.72-16.384s-6.144-20.48-2.048-30.72l-2.048-2.048 126.976-126.976h-122.88c-225.28-28.672-280.576-167.936-296.96-385.024 0-18.432 16.384-34.816 34.816-34.816 14.336 0 28.672 10.24 32.768 26.624l2.048 8.192c16.384 198.656 55.296 296.96 229.376 315.392h120.832l-116.736-120.832-6.144-8.192c-2.048-4.096-4.096-10.24-4.096-16.384 0-18.432 16.384-34.816 34.816-34.816 6.144 0 12.288 2.048 18.432 4.096l194.56 194.56c4.096 2.048 6.144 6.144 6.144 12.288 2.048 4.096 2.048 6.144 0 10.24z" />
<glyph unicode="&#xe637;" glyph-name="comment" d="M595.2-147.808c-8.192 0-16.384 3.136-22.656 9.344-12.48 12.48-12.48 32.768 0 45.248l194.176 194.176c6.016 6.016 14.144 9.344 22.656 9.344h83.2c12.928 0 23.424 10.56 23.424 23.488v443.776c0 12.992-10.496 23.488-23.424 23.488h-721.088c-12.928 0.064-23.488-10.496-23.488-23.488v-443.776c0-12.928 10.56-23.488 23.488-23.488h388.224c17.664 0 32-14.336 32-32s-14.336-32-32-32h-388.224c-48.256 0.064-87.488 39.296-87.488 87.552v443.712c0 48.256 39.232 87.488 87.488 87.488h721.088c48.192 0.064 87.424-39.232 87.424-87.488v-443.776c0-48.192-39.232-87.488-87.424-87.488h-69.952l-184.832-184.704c-6.208-6.272-14.4-9.408-22.592-9.408zM466.688 360.224c0 26.51 21.49 48 48 48s48-21.49 48-48v0c0-26.51-21.49-48-48-48s-48 21.49-48 48v0zM658.688 360.224c0 26.51 21.49 48 48 48s48-21.49 48-48v0c0-26.51-21.49-48-48-48s-48 21.49-48 48v0zM269.376 360.224c0 26.51 21.49 48 48 48s48-21.49 48-48v0c0-26.51-21.49-48-48-48s-48 21.49-48 48v0z" />
<glyph unicode="&#xe638;" glyph-name="comment2" d="M595.2-147.808c-8.192 0-16.384 3.136-22.656 9.344-12.48 12.48-12.48 32.768 0 45.248l194.176 194.176c6.016 6.016 14.144 9.344 22.656 9.344h83.2c12.928 0 23.424 10.56 23.424 23.488v443.776c0 12.992-10.496 23.488-23.424 23.488h-721.088c-12.928 0.064-23.488-10.496-23.488-23.488v-443.776c0-12.928 10.56-23.488 23.488-23.488h388.224c17.664 0 32-14.336 32-32s-14.336-32-32-32h-388.224c-48.256 0.064-87.488 39.296-87.488 87.552v443.712c0 48.256 39.232 87.488 87.488 87.488h721.088c48.192 0.064 87.424-39.232 87.424-87.488v-443.776c0-48.192-39.232-87.488-87.424-87.488h-69.952l-184.832-184.704c-6.208-6.272-14.4-9.408-22.592-9.408zM466.688 360.224c0 26.51 21.49 48 48 48s48-21.49 48-48v0c0-26.51-21.49-48-48-48s-48 21.49-48 48v0zM658.688 360.224c0 26.51 21.49 48 48 48s48-21.49 48-48v0c0-26.51-21.49-48-48-48s-48 21.49-48 48v0zM269.376 360.224c0 26.51 21.49 48 48 48s48-21.49 48-48v0c0-26.51-21.49-48-48-48s-48 21.49-48 48v0z" />
<glyph unicode="&#xe639;" glyph-name="zhuanlanxinxi" d="M798.836-128h-8.968l-285.167 180.224-270.154-180.224h-9.381c-51.373 0.066-92.998 41.708-93.035 93.081v837.834c0.038 51.377 41.662 93.019 93.029 93.085h573.677c51.373-0.066 92.998-41.708 93.035-93.081v-837.834c-0.038-51.377-41.662-93.019-93.029-93.085h-0.006zM829.853 802.915c-0.019 17.123-13.894 30.999-31.015 31.017h-573.673c-17.123-0.019-30.999-13.894-31.017-31.015v-837.832c0-14.386 9.844-26.525 23.139-30.010l286.505 191.125 302.559-191.207c13.599 3.492 23.49 15.635 23.502 30.091v837.831zM652.387 367.484h-264.258c-13.68 0.003-24.769 11.094-24.769 24.774s11.089 24.771 24.769 24.774h264.258c13.68-0.003 24.769-11.094 24.769-24.774s-11.089-24.771-24.769-24.774v0zM652.387 532.645h-264.258c-13.68 0.003-24.769 11.094-24.769 24.774s11.089 24.771 24.769 24.774h264.258c13.68-0.003 24.769-11.094 24.769-24.774s-11.089-24.771-24.769-24.774v0z" />
<glyph unicode="&#xe63a;" glyph-name="zhuanlanxinxi2" d="M798.836-128h-8.968l-285.167 180.224-270.154-180.224h-9.381c-51.373 0.066-92.998 41.708-93.035 93.081v837.834c0.038 51.377 41.662 93.019 93.029 93.085h573.677c51.373-0.066 92.998-41.708 93.035-93.081v-837.834c-0.038-51.377-41.662-93.019-93.029-93.085h-0.006zM829.853 802.915c-0.019 17.123-13.894 30.999-31.015 31.017h-573.673c-17.123-0.019-30.999-13.894-31.017-31.015v-837.832c0-14.386 9.844-26.525 23.139-30.010l286.505 191.125 302.559-191.207c13.599 3.492 23.49 15.635 23.502 30.091v837.831zM652.387 367.484h-264.258c-13.68 0.003-24.769 11.094-24.769 24.774s11.089 24.771 24.769 24.774h264.258c13.68-0.003 24.769-11.094 24.769-24.774s-11.089-24.771-24.769-24.774v0zM652.387 532.645h-264.258c-13.68 0.003-24.769 11.094-24.769 24.774s11.089 24.771 24.769 24.774h264.258c13.68-0.003 24.769-11.094 24.769-24.774s-11.089-24.771-24.769-24.774v0z" />
<glyph unicode="&#xe63b;" glyph-name="zhuanlanxinxi3" d="M798.836-128h-8.968l-285.167 180.224-270.154-180.224h-9.381c-51.373 0.066-92.998 41.708-93.035 93.081v837.834c0.038 51.377 41.662 93.019 93.029 93.085h573.677c51.373-0.066 92.998-41.708 93.035-93.081v-837.834c-0.038-51.377-41.662-93.019-93.029-93.085h-0.006zM829.853 802.915c-0.019 17.123-13.894 30.999-31.015 31.017h-573.673c-17.123-0.019-30.999-13.894-31.017-31.015v-837.832c0-14.386 9.844-26.525 23.139-30.010l286.505 191.125 302.559-191.207c13.599 3.492 23.49 15.635 23.502 30.091v837.831zM652.387 367.484h-264.258c-13.68 0.003-24.769 11.094-24.769 24.774s11.089 24.771 24.769 24.774h264.258c13.68-0.003 24.769-11.094 24.769-24.774s-11.089-24.771-24.769-24.774v0zM652.387 532.645h-264.258c-13.68 0.003-24.769 11.094-24.769 24.774s11.089 24.771 24.769 24.774h264.258c13.68-0.003 24.769-11.094 24.769-24.774s-11.089-24.771-24.769-24.774v0z" />
<glyph unicode="&#xe63c;" glyph-name="zhuanlanxinxi4" d="M798.836-128h-8.968l-285.167 180.224-270.154-180.224h-9.381c-51.373 0.066-92.998 41.708-93.035 93.081v837.834c0.038 51.377 41.662 93.019 93.029 93.085h573.677c51.373-0.066 92.998-41.708 93.035-93.081v-837.834c-0.038-51.377-41.662-93.019-93.029-93.085h-0.006zM829.853 802.915c-0.019 17.123-13.894 30.999-31.015 31.017h-573.673c-17.123-0.019-30.999-13.894-31.017-31.015v-837.832c0-14.386 9.844-26.525 23.139-30.010l286.505 191.125 302.559-191.207c13.599 3.492 23.49 15.635 23.502 30.091v837.831zM652.387 367.484h-264.258c-13.68 0.003-24.769 11.094-24.769 24.774s11.089 24.771 24.769 24.774h264.258c13.68-0.003 24.769-11.094 24.769-24.774s-11.089-24.771-24.769-24.774v0zM652.387 532.645h-264.258c-13.68 0.003-24.769 11.094-24.769 24.774s11.089 24.771 24.769 24.774h264.258c13.68-0.003 24.769-11.094 24.769-24.774s-11.089-24.771-24.769-24.774v0z" />
<glyph unicode="&#xe641;" glyph-name="tag" d="M384-81.152c-20.531 0-39.834 7.987-54.323 22.426l-260.403 260.403c-14.49 14.49-22.426 33.741-22.426 54.323s7.987 39.834 22.426 54.323l439.603 439.603c24.934 24.934 70.246 43.725 105.523 43.725h230.4c42.342 0 76.8-34.458 76.8-76.8v-230.4c0-35.226-18.79-80.589-43.674-105.523l-439.603-439.603c-14.49-14.49-33.741-22.426-54.323-22.426zM614.4 742.4c-21.248 0-54.272-13.67-69.274-28.723l-439.603-439.603c-4.813-4.813-7.424-11.213-7.424-18.125s2.662-13.312 7.424-18.074l260.403-260.403c4.813-4.813 11.213-7.424 18.125-7.424s13.312 2.662 18.125 7.424l439.603 439.603c15.002 15.002 28.723 48.077 28.723 69.325v230.4c0 14.131-11.469 25.6-25.6 25.6h-230.4zM742.4 537.6c-42.342 0-76.8 34.458-76.8 76.8s34.458 76.8 76.8 76.8 76.8-34.458 76.8-76.8-34.458-76.8-76.8-76.8zM742.4 640c-14.131 0-25.6-11.469-25.6-25.6s11.469-25.6 25.6-25.6 25.6 11.469 25.6 25.6-11.469 25.6-25.6 25.6z" />
<glyph unicode="&#xe642;" glyph-name="tag2" d="M384-81.152c-20.531 0-39.834 7.987-54.323 22.426l-260.403 260.403c-14.49 14.49-22.426 33.741-22.426 54.323s7.987 39.834 22.426 54.323l439.603 439.603c24.934 24.934 70.246 43.725 105.523 43.725h230.4c42.342 0 76.8-34.458 76.8-76.8v-230.4c0-35.226-18.79-80.589-43.674-105.523l-439.603-439.603c-14.49-14.49-33.741-22.426-54.323-22.426zM614.4 742.4c-21.248 0-54.272-13.67-69.274-28.723l-439.603-439.603c-4.813-4.813-7.424-11.213-7.424-18.125s2.662-13.312 7.424-18.074l260.403-260.403c4.813-4.813 11.213-7.424 18.125-7.424s13.312 2.662 18.125 7.424l439.603 439.603c15.002 15.002 28.723 48.077 28.723 69.325v230.4c0 14.131-11.469 25.6-25.6 25.6h-230.4zM742.4 537.6c-42.342 0-76.8 34.458-76.8 76.8s34.458 76.8 76.8 76.8 76.8-34.458 76.8-76.8-34.458-76.8-76.8-76.8zM742.4 640c-14.131 0-25.6-11.469-25.6-25.6s11.469-25.6 25.6-25.6 25.6 11.469 25.6 25.6-11.469 25.6-25.6 25.6z" />
<glyph unicode="&#xe643;" glyph-name="tag3" d="M384-81.152c-20.531 0-39.834 7.987-54.323 22.426l-260.403 260.403c-14.49 14.49-22.426 33.741-22.426 54.323s7.987 39.834 22.426 54.323l439.603 439.603c24.934 24.934 70.246 43.725 105.523 43.725h230.4c42.342 0 76.8-34.458 76.8-76.8v-230.4c0-35.226-18.79-80.589-43.674-105.523l-439.603-439.603c-14.49-14.49-33.741-22.426-54.323-22.426zM614.4 742.4c-21.248 0-54.272-13.67-69.274-28.723l-439.603-439.603c-4.813-4.813-7.424-11.213-7.424-18.125s2.662-13.312 7.424-18.074l260.403-260.403c4.813-4.813 11.213-7.424 18.125-7.424s13.312 2.662 18.125 7.424l439.603 439.603c15.002 15.002 28.723 48.077 28.723 69.325v230.4c0 14.131-11.469 25.6-25.6 25.6h-230.4zM742.4 537.6c-42.342 0-76.8 34.458-76.8 76.8s34.458 76.8 76.8 76.8 76.8-34.458 76.8-76.8-34.458-76.8-76.8-76.8zM742.4 640c-14.131 0-25.6-11.469-25.6-25.6s11.469-25.6 25.6-25.6 25.6 11.469 25.6 25.6-11.469 25.6-25.6 25.6z" />
<glyph unicode="&#xe644;" glyph-name="tag4" d="M384-81.152c-20.531 0-39.834 7.987-54.323 22.426l-260.403 260.403c-14.49 14.49-22.426 33.741-22.426 54.323s7.987 39.834 22.426 54.323l439.603 439.603c24.934 24.934 70.246 43.725 105.523 43.725h230.4c42.342 0 76.8-34.458 76.8-76.8v-230.4c0-35.226-18.79-80.589-43.674-105.523l-439.603-439.603c-14.49-14.49-33.741-22.426-54.323-22.426zM614.4 742.4c-21.248 0-54.272-13.67-69.274-28.723l-439.603-439.603c-4.813-4.813-7.424-11.213-7.424-18.125s2.662-13.312 7.424-18.074l260.403-260.403c4.813-4.813 11.213-7.424 18.125-7.424s13.312 2.662 18.125 7.424l439.603 439.603c15.002 15.002 28.723 48.077 28.723 69.325v230.4c0 14.131-11.469 25.6-25.6 25.6h-230.4zM742.4 537.6c-42.342 0-76.8 34.458-76.8 76.8s34.458 76.8 76.8 76.8 76.8-34.458 76.8-76.8-34.458-76.8-76.8-76.8zM742.4 640c-14.131 0-25.6-11.469-25.6-25.6s11.469-25.6 25.6-25.6 25.6 11.469 25.6 25.6-11.469 25.6-25.6 25.6z" />
<glyph unicode="&#xe660;" glyph-name="home" d="M952.105 325.668l-400.196 404.245c0 0-15.875 18.876-40.079 18.876-26.238 0-40.037-18.887-40.037-18.887l-400.194-404.279c-11.077-11.17-11.077-29.266 0-40.444 11.008-11.143 26.583-2.606 37.635 8.524l26.838 27.142 376.909 373.594 401.486-403.9c11.007-7.273 28.014-15.077 37.635-5.334 11.077 11.153 11.077 29.275 0.001 40.464zM808.208 344.273c-12.298 0-22.316-10.056-22.358-22.477v-0.045c0-0.047 0-0.047 0-0.095v-376.937c0-24.977-20.053-45.214-44.72-45.214h-99.457v218.046c0 47.418-38.006 85.832-84.964 85.832h-89.714c-46.958 0-84.964-38.414-84.964-85.832v-218.046h-99.454c-24.667 0-44.718 20.236-44.718 45.214v377.009c-0.023 12.465-10.039 22.543-22.337 22.543-12.344 0-22.339-10.081-22.384-22.543v-381.543c0-47.43 38.027-85.844 84.961-85.844h148.629v258.693c0 24.964 20.052 45.187 44.72 45.187h80.81c24.668 0 44.721-20.227 44.721-45.187v-258.693h148.627c46.934 0 84.963 38.414 84.963 85.846v381.609c-0.072 12.419-10.039 22.477-22.36 22.477z" />
<glyph unicode="&#xe661;" glyph-name="home2" d="M952.105 325.668l-400.196 404.245c0 0-15.875 18.876-40.079 18.876-26.238 0-40.037-18.887-40.037-18.887l-400.194-404.279c-11.077-11.17-11.077-29.266 0-40.444 11.008-11.143 26.583-2.606 37.635 8.524l26.838 27.142 376.909 373.594 401.486-403.9c11.007-7.273 28.014-15.077 37.635-5.334 11.077 11.153 11.077 29.275 0.001 40.464zM808.208 344.273c-12.298 0-22.316-10.056-22.358-22.477v-0.045c0-0.047 0-0.047 0-0.095v-376.937c0-24.977-20.053-45.214-44.72-45.214h-99.457v218.046c0 47.418-38.006 85.832-84.964 85.832h-89.714c-46.958 0-84.964-38.414-84.964-85.832v-218.046h-99.454c-24.667 0-44.718 20.236-44.718 45.214v377.009c-0.023 12.465-10.039 22.543-22.337 22.543-12.344 0-22.339-10.081-22.384-22.543v-381.543c0-47.43 38.027-85.844 84.961-85.844h148.629v258.693c0 24.964 20.052 45.187 44.72 45.187h80.81c24.668 0 44.721-20.227 44.721-45.187v-258.693h148.627c46.934 0 84.963 38.414 84.963 85.846v381.609c-0.072 12.419-10.039 22.477-22.36 22.477z" />
<glyph unicode="&#xe662;" glyph-name="home3" d="M952.105 325.668l-400.196 404.245c0 0-15.875 18.876-40.079 18.876-26.238 0-40.037-18.887-40.037-18.887l-400.194-404.279c-11.077-11.17-11.077-29.266 0-40.444 11.008-11.143 26.583-2.606 37.635 8.524l26.838 27.142 376.909 373.594 401.486-403.9c11.007-7.273 28.014-15.077 37.635-5.334 11.077 11.153 11.077 29.275 0.001 40.464zM808.208 344.273c-12.298 0-22.316-10.056-22.358-22.477v-0.045c0-0.047 0-0.047 0-0.095v-376.937c0-24.977-20.053-45.214-44.72-45.214h-99.457v218.046c0 47.418-38.006 85.832-84.964 85.832h-89.714c-46.958 0-84.964-38.414-84.964-85.832v-218.046h-99.454c-24.667 0-44.718 20.236-44.718 45.214v377.009c-0.023 12.465-10.039 22.543-22.337 22.543-12.344 0-22.339-10.081-22.384-22.543v-381.543c0-47.43 38.027-85.844 84.961-85.844h148.629v258.693c0 24.964 20.052 45.187 44.72 45.187h80.81c24.668 0 44.721-20.227 44.721-45.187v-258.693h148.627c46.934 0 84.963 38.414 84.963 85.846v381.609c-0.072 12.419-10.039 22.477-22.36 22.477z" />
<glyph unicode="&#xe663;" glyph-name="home4" d="M952.105 325.668l-400.196 404.245c0 0-15.875 18.876-40.079 18.876-26.238 0-40.037-18.887-40.037-18.887l-400.194-404.279c-11.077-11.17-11.077-29.266 0-40.444 11.008-11.143 26.583-2.606 37.635 8.524l26.838 27.142 376.909 373.594 401.486-403.9c11.007-7.273 28.014-15.077 37.635-5.334 11.077 11.153 11.077 29.275 0.001 40.464zM808.208 344.273c-12.298 0-22.316-10.056-22.358-22.477v-0.045c0-0.047 0-0.047 0-0.095v-376.937c0-24.977-20.053-45.214-44.72-45.214h-99.457v218.046c0 47.418-38.006 85.832-84.964 85.832h-89.714c-46.958 0-84.964-38.414-84.964-85.832v-218.046h-99.454c-24.667 0-44.718 20.236-44.718 45.214v377.009c-0.023 12.465-10.039 22.543-22.337 22.543-12.344 0-22.339-10.081-22.384-22.543v-381.543c0-47.43 38.027-85.844 84.961-85.844h148.629v258.693c0 24.964 20.052 45.187 44.72 45.187h80.81c24.668 0 44.721-20.227 44.721-45.187v-258.693h148.627c46.934 0 84.963 38.414 84.963 85.846v381.609c-0.072 12.419-10.039 22.477-22.36 22.477z" />
<glyph unicode="&#xe668;" glyph-name="shangchuan" d="M731.628 604.27c-39.379 105.881-126.004 168.878-249.375 168.878-160.124 1.747-276.506-121.623-284.381-275.627-39.371-13.127-70.874-37.623-96.249-73.499s-37.623-76.124-37.623-120.745c0-55.131 18.377-102.376 56.001-142.625 37.623-40.258 81.375-60.381 133.002-60.381h80.497c16.63 0 28 13.127 28 28 0 15.752-11.37 28-28 28h-80.497c-35.876 0-67.379 14.883-94.501 43.751-26.252 28.878-39.379 63.876-39.379 103.255 0 34.998 10.501 66.502 32.381 94.501 21.872 28 48.124 44.621 78.75 49.872l25.375 4.372-1.756 26.253h-0.869c0 136.496 90.998 238.874 229.251 238.874 104.124 0 171.494-49.002 202.12-147.876l6.129-19.246 20.124-0.878c52.496-0.878 97.996-19.246 136.497-56.878 39.379-37.623 58.625-82.244 58.625-133.872 2.626-95.379-65.623-203.875-159.246-202.128h-63.876c-35.876 0-35.876-56.001 0-56.001h63.876c140 5.251 213.499 136.505 213.499 258.129 0 63.876-21.872 118.998-66.502 165.375-43.752 46.374-97.996 73.496-161.872 80.494zM533.002 381.148v0.878l-6.998 6.998c-7.876 7.876-21.002 7.876-28.878 0l-6.998-6.998v-0.878l-101.508-112c-7.867-7.876-7.867-20.124 0-29.747l7.006-4.382c7.876-7.866 19.246-5.242 28.87 2.626l59.504 66.502v-281.747c0-36.754 56.001-36.754 56.001 0v281.746l61.251-68.249c7.876-7.876 20.124-10.501 28-2.626l6.998 4.372c7.876 9.632 7.876 21.881 0 29.756l-103.247 113.748z" />
<glyph unicode="&#xe669;" glyph-name="shangchuan2" d="M731.628 604.27c-39.379 105.881-126.004 168.878-249.375 168.878-160.124 1.747-276.506-121.623-284.381-275.627-39.371-13.127-70.874-37.623-96.249-73.499s-37.623-76.124-37.623-120.745c0-55.131 18.377-102.376 56.001-142.625 37.623-40.258 81.375-60.381 133.002-60.381h80.497c16.63 0 28 13.127 28 28 0 15.752-11.37 28-28 28h-80.497c-35.876 0-67.379 14.883-94.501 43.751-26.252 28.878-39.379 63.876-39.379 103.255 0 34.998 10.501 66.502 32.381 94.501 21.872 28 48.124 44.621 78.75 49.872l25.375 4.372-1.756 26.253h-0.869c0 136.496 90.998 238.874 229.251 238.874 104.124 0 171.494-49.002 202.12-147.876l6.129-19.246 20.124-0.878c52.496-0.878 97.996-19.246 136.497-56.878 39.379-37.623 58.625-82.244 58.625-133.872 2.626-95.379-65.623-203.875-159.246-202.128h-63.876c-35.876 0-35.876-56.001 0-56.001h63.876c140 5.251 213.499 136.505 213.499 258.129 0 63.876-21.872 118.998-66.502 165.375-43.752 46.374-97.996 73.496-161.872 80.494zM533.002 381.148v0.878l-6.998 6.998c-7.876 7.876-21.002 7.876-28.878 0l-6.998-6.998v-0.878l-101.508-112c-7.867-7.876-7.867-20.124 0-29.747l7.006-4.382c7.876-7.866 19.246-5.242 28.87 2.626l59.504 66.502v-281.747c0-36.754 56.001-36.754 56.001 0v281.746l61.251-68.249c7.876-7.876 20.124-10.501 28-2.626l6.998 4.372c7.876 9.632 7.876 21.881 0 29.756l-103.247 113.748z" />
<glyph unicode="&#xe66a;" glyph-name="checkmark3" horiz-adv-x="1031" d="M1014.592 667.744l-90.848 90.848c-12.576 12.576-32.832 12.576-45.408 0l-464.48-490.368-266.24 266.368c-12.704 12.704-33.312 12.704-46.016 0l-92.032-92.096c-12.704-12.672-12.704-33.28 0-46.016l378.656-387.456c7.328-7.36 17.28-9.888 26.848-8.64 9.888-1.472 20.192 1.024 27.776 8.64l571.744 613.28c12.544 12.544 12.544 32.896 0 45.44z" />
<glyph unicode="&#xe66b;" glyph-name="checkmark32" horiz-adv-x="1031" d="M1014.592 667.744l-90.848 90.848c-12.576 12.576-32.832 12.576-45.408 0l-464.48-490.368-266.24 266.368c-12.704 12.704-33.312 12.704-46.016 0l-92.032-92.096c-12.704-12.672-12.704-33.28 0-46.016l378.656-387.456c7.328-7.36 17.28-9.888 26.848-8.64 9.888-1.472 20.192 1.024 27.776 8.64l571.744 613.28c12.544 12.544 12.544 32.896 0 45.44z" />
<glyph unicode="&#xe66c;" glyph-name="checkmark33" horiz-adv-x="1031" d="M1014.592 667.744l-90.848 90.848c-12.576 12.576-32.832 12.576-45.408 0l-464.48-490.368-266.24 266.368c-12.704 12.704-33.312 12.704-46.016 0l-92.032-92.096c-12.704-12.672-12.704-33.28 0-46.016l378.656-387.456c7.328-7.36 17.28-9.888 26.848-8.64 9.888-1.472 20.192 1.024 27.776 8.64l571.744 613.28c12.544 12.544 12.544 32.896 0 45.44z" />
<glyph unicode="&#xe66d;" glyph-name="shangchuan3" d="M731.628 604.27c-39.379 105.881-126.004 168.878-249.375 168.878-160.124 1.747-276.506-121.623-284.381-275.627-39.371-13.127-70.874-37.623-96.249-73.499s-37.623-76.124-37.623-120.745c0-55.131 18.377-102.376 56.001-142.625 37.623-40.258 81.375-60.381 133.002-60.381h80.497c16.63 0 28 13.127 28 28 0 15.752-11.37 28-28 28h-80.497c-35.876 0-67.379 14.883-94.501 43.751-26.252 28.878-39.379 63.876-39.379 103.255 0 34.998 10.501 66.502 32.381 94.501 21.872 28 48.124 44.621 78.75 49.872l25.375 4.372-1.756 26.253h-0.869c0 136.496 90.998 238.874 229.251 238.874 104.124 0 171.494-49.002 202.12-147.876l6.129-19.246 20.124-0.878c52.496-0.878 97.996-19.246 136.497-56.878 39.379-37.623 58.625-82.244 58.625-133.872 2.626-95.379-65.623-203.875-159.246-202.128h-63.876c-35.876 0-35.876-56.001 0-56.001h63.876c140 5.251 213.499 136.505 213.499 258.129 0 63.876-21.872 118.998-66.502 165.375-43.752 46.374-97.996 73.496-161.872 80.494zM533.002 381.148v0.878l-6.998 6.998c-7.876 7.876-21.002 7.876-28.878 0l-6.998-6.998v-0.878l-101.508-112c-7.867-7.876-7.867-20.124 0-29.747l7.006-4.382c7.876-7.866 19.246-5.242 28.87 2.626l59.504 66.502v-281.747c0-36.754 56.001-36.754 56.001 0v281.746l61.251-68.249c7.876-7.876 20.124-10.501 28-2.626l6.998 4.372c7.876 9.632 7.876 21.881 0 29.756l-103.247 113.748z" />
<glyph unicode="&#xe696;" glyph-name="all" d="M460.8 409.6h25.6v243.2c0 134.316-108.884 243.2-243.2 243.2s-243.2-108.884-243.2-243.2c0-134.316 108.884-243.2 243.2-243.2h217.6zM51.2 652.8c0 106.039 85.961 192 192 192s192-85.961 192-192v-217.6l25.6 25.6h-217.6c-106.039 0-192 85.961-192 192zM460.8 307.2l-25.6 25.6v-217.6c0-106.039-85.961-192-192-192s-192 85.961-192 192c0 106.039 85.961 192 192 192h217.6zM0 115.2c0-134.316 108.884-243.2 243.2-243.2s243.2 108.884 243.2 243.2v243.2h-243.2c-134.316 0-243.2-108.884-243.2-243.2zM563.2 460.8l25.6-25.6v217.6c0 106.039 85.961 192 192 192s192-85.961 192-192c0-106.039-85.961-192-192-192h-217.6zM1024 652.8c0 134.316-108.884 243.2-243.2 243.2s-243.2-108.884-243.2-243.2v-243.2h243.2c134.316 0 243.2 108.884 243.2 243.2zM1024 115.2c0 134.316-108.884 243.2-243.2 243.2h-243.2v-243.2c0-134.316 108.884-243.2 243.2-243.2 37.713 0 74.251 8.609 107.379 24.935 12.682 6.25 17.897 21.597 11.647 34.279s-21.597 17.897-34.279 11.647c-26.126-12.875-54.926-19.661-84.747-19.661-106.039 0-192 85.961-192 192v217.6l-25.6-25.6h217.6c106.039 0 192-85.961 192-192 0-18.67-2.657-36.956-7.832-54.479-4.004-13.56 3.742-27.798 17.302-31.802s27.798 3.742 31.802 17.302c6.561 22.219 9.928 45.388 9.928 68.979z" />
<glyph unicode="&#xe697;" glyph-name="back" d="M363.841 423.021c-26.902-24.38-26.539-64.507 0.889-88.507l309.222-270.569c8.867-7.759 22.345-6.86 30.103 2.007s6.86 22.345-2.007 30.103l-309.222 270.569c-8.231 7.202-8.324 17.541-0.334 24.782l309.833 280.786c8.73 7.912 9.394 21.403 1.482 30.133s-21.403 9.394-30.133 1.482l-309.833-280.786z" />
<glyph unicode="&#xe698;" glyph-name="all2" d="M460.8 409.6h25.6v243.2c0 134.316-108.884 243.2-243.2 243.2s-243.2-108.884-243.2-243.2c0-134.316 108.884-243.2 243.2-243.2h217.6zM51.2 652.8c0 106.039 85.961 192 192 192s192-85.961 192-192v-217.6l25.6 25.6h-217.6c-106.039 0-192 85.961-192 192zM460.8 307.2l-25.6 25.6v-217.6c0-106.039-85.961-192-192-192s-192 85.961-192 192c0 106.039 85.961 192 192 192h217.6zM0 115.2c0-134.316 108.884-243.2 243.2-243.2s243.2 108.884 243.2 243.2v243.2h-243.2c-134.316 0-243.2-108.884-243.2-243.2zM563.2 460.8l25.6-25.6v217.6c0 106.039 85.961 192 192 192s192-85.961 192-192c0-106.039-85.961-192-192-192h-217.6zM1024 652.8c0 134.316-108.884 243.2-243.2 243.2s-243.2-108.884-243.2-243.2v-243.2h243.2c134.316 0 243.2 108.884 243.2 243.2zM1024 115.2c0 134.316-108.884 243.2-243.2 243.2h-243.2v-243.2c0-134.316 108.884-243.2 243.2-243.2 37.713 0 74.251 8.609 107.379 24.935 12.682 6.25 17.897 21.597 11.647 34.279s-21.597 17.897-34.279 11.647c-26.126-12.875-54.926-19.661-84.747-19.661-106.039 0-192 85.961-192 192v217.6l-25.6-25.6h217.6c106.039 0 192-85.961 192-192 0-18.67-2.657-36.956-7.832-54.479-4.004-13.56 3.742-27.798 17.302-31.802s27.798 3.742 31.802 17.302c6.561 22.219 9.928 45.388 9.928 68.979z" />
<glyph unicode="&#xe699;" glyph-name="category" d="M134.095 640c13.465 0 24.381 9.551 24.381 21.333s-10.916 21.333-24.381 21.333h-97.524c-13.465 0-24.381-9.551-24.381-21.333s10.916-21.333 24.381-21.333h97.524zM134.095 362.667c13.465 0 24.381 9.551 24.381 21.333s-10.916 21.333-24.381 21.333h-97.524c-13.465 0-24.381-9.551-24.381-21.333s10.916-21.333 24.381-21.333h97.524zM134.095 85.333c13.465 0 24.381 9.551 24.381 21.333s-10.916 21.333-24.381 21.333h-97.524c-13.465 0-24.381-9.551-24.381-21.333s10.916-21.333 24.381-21.333h97.524zM987.429 640c13.465 0 24.381 9.551 24.381 21.333s-10.916 21.333-24.381 21.333h-707.048c-13.465 0-24.381-9.551-24.381-21.333s10.916-21.333 24.381-21.333h707.048zM993.524 362.667c13.465 0 24.381 9.551 24.381 21.333s-10.916 21.333-24.381 21.333h-707.048c-13.465 0-24.381-9.551-24.381-21.333s10.916-21.333 24.381-21.333h707.048zM996.571 85.333c13.465 0 24.381 9.551 24.381 21.333s-10.916 21.333-24.381 21.333h-707.048c-13.465 0-24.381-9.551-24.381-21.333s10.916-21.333 24.381-21.333h707.048z" />
<glyph unicode="&#xe69a;" glyph-name="close" d="M176.662 78.827c-8.189-8.471-7.96-21.977 0.511-30.166s21.977-7.96 30.166 0.511l618.667 640c8.189 8.471 7.96 21.977-0.511 30.166s-21.977 7.96-30.166-0.511l-618.667-640zM795.328 49.173c8.189-8.471 21.694-8.7 30.166-0.511s8.7 21.694 0.511 30.166l-618.667 640c-8.189 8.471-21.694 8.7-30.166 0.511s-8.7-21.694-0.511-30.166l618.667-640z" />
<glyph unicode="&#xe69b;" glyph-name="back2" d="M363.841 423.021c-26.902-24.38-26.539-64.507 0.889-88.507l309.222-270.569c8.867-7.759 22.345-6.86 30.103 2.007s6.86 22.345-2.007 30.103l-309.222 270.569c-8.231 7.202-8.324 17.541-0.334 24.782l309.833 280.786c8.73 7.912 9.394 21.403 1.482 30.133s-21.403 9.394-30.133 1.482l-309.833-280.786z" />
<glyph unicode="&#xe69c;" glyph-name="cart" d="M235.097 196.867c12.287-36.45 51.285-64.491 89.675-64.491h555.657l128.658 447.779c12.301 42.813-15.9 80.631-60.036 80.631h-524.466c-13.794 0-24.976-11.266-24.976-25.162s11.182-25.162 24.976-25.162h524.466c10.872 0 15.109-5.682 12.055-16.313l-123.439-429.613 23.991 18.166h-536.886c-17.031 0-36.983 14.347-42.378 30.35l-208.795 619.383c-4.436 13.159-18.62 20.203-31.681 15.734s-20.053-18.759-15.617-31.918l208.795-619.383zM399.61-6.017c0 55.587-44.728 100.65-99.902 100.65s-99.902-45.062-99.902-100.65c0-55.587 44.728-100.65 99.902-100.65s99.902 45.062 99.902 100.65zM249.756-6.017c0 27.794 22.364 50.325 49.951 50.325s49.951-22.531 49.951-50.325c0-27.794-22.364-50.325-49.951-50.325s-49.951 22.531-49.951 50.325zM924.098-6.017c0 55.587-44.728 100.65-99.902 100.65s-99.902-45.062-99.902-100.65c0-55.587 44.728-100.65 99.902-100.65s99.902 45.062 99.902 100.65zM774.244-6.017c0 27.794 22.364 50.325 49.951 50.325s49.951-22.531 49.951-50.325c0-27.794-22.364-50.325-49.951-50.325s-49.951 22.531-49.951 50.325z" />
<glyph unicode="&#xe69d;" glyph-name="delete" d="M972.658 686.652c14.501-0.020 26.273 11.777 26.292 26.35s-11.719 26.402-26.22 26.422l-940.272 1.296c-14.501 0.020-26.273-11.777-26.292-26.35s11.719-26.402 26.22-26.422l940.272-1.296zM180.467-96.356v-26.659l678.881 7.015v722.602c0 14.573-11.755 26.386-26.256 26.386s-26.256-11.813-26.256-26.386v-696.486l25.986 26.385-626.369-6.473 26.526-26.385v709.686c0 14.573-11.755 26.386-26.256 26.386s-26.256-11.813-26.256-26.386v-709.686zM656.41 48.921c0-14.573 11.755-26.386 26.256-26.386s26.256 11.813 26.256 26.386v474.947c0 14.573-11.755 26.386-26.256 26.386s-26.256-11.813-26.256-26.386v-474.947zM341.333 48.921c0-14.573 11.755-26.386 26.256-26.386s26.256 11.813 26.256 26.386v474.947c0 14.573-11.755 26.386-26.256 26.386s-26.256-11.813-26.256-26.386v-474.947zM498.872 48.921c0-14.573 11.755-26.386 26.256-26.386s26.256 11.813 26.256 26.386v474.947c0 14.573-11.755 26.386-26.256 26.386s-26.256-11.813-26.256-26.386v-474.947zM392.148 779.278c0 14.658 11.611 26.358 26.254 26.358h204.524c14.483 0 26.254-11.798 26.254-26.186v-55.095h52.513v55.095c0 43.563-35.311 78.958-78.766 78.958h-204.524c-43.677 0-78.766-35.359-78.766-79.13v-48.589h52.513v48.589z" />
<glyph unicode="&#xe69e;" glyph-name="category2" d="M134.095 640c13.465 0 24.381 9.551 24.381 21.333s-10.916 21.333-24.381 21.333h-97.524c-13.465 0-24.381-9.551-24.381-21.333s10.916-21.333 24.381-21.333h97.524zM134.095 362.667c13.465 0 24.381 9.551 24.381 21.333s-10.916 21.333-24.381 21.333h-97.524c-13.465 0-24.381-9.551-24.381-21.333s10.916-21.333 24.381-21.333h97.524zM134.095 85.333c13.465 0 24.381 9.551 24.381 21.333s-10.916 21.333-24.381 21.333h-97.524c-13.465 0-24.381-9.551-24.381-21.333s10.916-21.333 24.381-21.333h97.524zM987.429 640c13.465 0 24.381 9.551 24.381 21.333s-10.916 21.333-24.381 21.333h-707.048c-13.465 0-24.381-9.551-24.381-21.333s10.916-21.333 24.381-21.333h707.048zM993.524 362.667c13.465 0 24.381 9.551 24.381 21.333s-10.916 21.333-24.381 21.333h-707.048c-13.465 0-24.381-9.551-24.381-21.333s10.916-21.333 24.381-21.333h707.048zM996.571 85.333c13.465 0 24.381 9.551 24.381 21.333s-10.916 21.333-24.381 21.333h-707.048c-13.465 0-24.381-9.551-24.381-21.333s10.916-21.333 24.381-21.333h707.048z" />
<glyph unicode="&#xe69f;" glyph-name="close2" d="M176.662 78.827c-8.189-8.471-7.96-21.977 0.511-30.166s21.977-7.96 30.166 0.511l618.667 640c8.189 8.471 7.96 21.977-0.511 30.166s-21.977 7.96-30.166-0.511l-618.667-640zM795.328 49.173c8.189-8.471 21.694-8.7 30.166-0.511s8.7 21.694 0.511 30.166l-618.667 640c-8.189 8.471-21.694 8.7-30.166 0.511s-8.7-21.694-0.511-30.166l618.667-640z" />
<glyph unicode="&#xe6a0;" glyph-name="favorite" d="M471.864 811.902c13.811 30.163 21.181 30.093 34.224-0.246l113.657-264.368c5.418-12.603 20.222-18.509 33.066-13.193s18.863 19.843 13.445 32.445l-113.657 264.368c-30.206 70.26-94.92 70.878-126.782 1.293l-119.214-260.358c-5.713-12.477-0.036-27.135 12.679-32.741s27.654-0.036 33.367 12.441l119.214 260.358zM946.329 487.517c33.504-3.568 35.713-10.467 10.338-32.014l-221.116-187.76c-10.541-8.951-11.691-24.591-2.569-34.934s25.062-11.472 35.602-2.521l221.116 187.76c58.765 49.9 39.366 110.483-37.925 118.713l-289.19 30.796c-13.858 1.476-26.312-8.351-27.816-21.95s8.511-25.818 22.37-27.294l289.19-30.796zM789.292-62.035c6.895-32.368 0.891-36.562-27.835-19.54l-250.315 148.326c-11.933 7.071-27.448 3.311-34.654-8.398s-3.374-26.933 8.558-34.003l250.315-148.326c66.525-39.42 119.25-2.596 103.343 72.076l-59.516 279.391c-2.852 13.389-16.226 21.974-29.87 19.175s-22.394-15.921-19.542-29.31l59.516-279.391zM232.774-79.365c-29.242-16.437-35.162-12.129-27.541 19.938l66.413 279.431c3.166 13.321-5.273 26.638-18.848 29.744s-27.147-5.174-30.313-18.494l-66.413-279.431c-17.65-74.263 34.334-112.087 101.794-74.168l252.408 141.877c12.096 6.799 16.284 21.932 9.355 33.801s-22.352 15.979-34.447 9.18l-252.408-141.877zM129.994 382.712c-47.892 42.601-47.892 42.601-87.801 78.102-10.328 9.187-26.29 8.419-35.652-1.715s-8.58-25.796 1.747-34.983c39.91-35.501 39.91-35.501 87.801-78.102l127.711-113.604c10.328-9.187 26.29-8.419 35.652 1.715 9.363 10.134 8.58 25.796-1.748 34.983-31.928 28.401-31.928 28.401-127.711 113.604zM180.395 501.737c9.971 0.995 20.266 2.053 30.828 3.164 25.45 2.678 51.3 5.546 76.212 8.415 8.72 1.004 16.7 1.936 23.775 2.773 4.251 0.503 7.25 0.862 8.857 1.056 13.835 1.672 23.67 14.032 21.966 27.608s-14.3 23.226-28.136 21.554c-1.549-0.187-4.524-0.543-8.731-1.041-7.023-0.831-14.95-1.757-23.614-2.755-24.756-2.85-50.444-5.701-75.712-8.36-10.473-1.102-20.677-2.15-30.553-3.136-20.542-2.050-39.363-3.801-56.079-5.2-13.889-1.162-24.189-13.152-23.005-26.781s13.403-23.735 27.293-22.573c17.016 1.423 36.103 3.199 56.9 5.275z" />
<glyph unicode="&#xe6a1;" glyph-name="comments" d="M131.254 106.667c-43.443 0-78.741 35.859-78.741 79.916v640.084l-26.256-26.667h866.597c43.378 0 78.634-35.853 78.634-79.916v-640.084l26.256 26.667h-480.509l-231.322-155.303c-12.097-8.121-15.421-24.665-7.424-36.951s24.285-15.662 36.382-7.54l224.737 150.882-14.479-4.421h498.872v666.751c0 73.502-58.751 133.249-131.147 133.249h-892.853v-666.751c0-73.508 58.805-133.249 131.254-133.249h136.864c14.501 0 26.256 11.939 26.256 26.667s-11.755 26.667-26.256 26.667h-136.864zM367.59 453.333c0 58.91-47.022 106.667-105.026 106.667s-105.026-47.756-105.026-106.667c0-58.91 47.022-106.667 105.026-106.667s105.026 47.756 105.026 106.667zM210.051 453.333c0 29.455 23.511 53.333 52.513 53.333s52.513-23.878 52.513-53.333c0-29.455-23.511-53.333-52.513-53.333s-52.513 23.878-52.513 53.333zM630.154 453.333c0 58.91-47.022 106.667-105.026 106.667s-105.026-47.756-105.026-106.667c0-58.91 47.022-106.667 105.026-106.667s105.026 47.756 105.026 106.667zM472.615 453.333c0 29.455 23.511 53.333 52.513 53.333s52.513-23.878 52.513-53.333c0-29.455-23.511-53.333-52.513-53.333s-52.513 23.878-52.513 53.333zM892.718 453.333c0 58.91-47.022 106.667-105.026 106.667s-105.026-47.756-105.026-106.667c0-58.91 47.022-106.667 105.026-106.667s105.026 47.756 105.026 106.667zM735.179 453.333c0 29.455 23.511 53.333 52.513 53.333s52.513-23.878 52.513-53.333c0-29.455-23.511-53.333-52.513-53.333s-52.513 23.878-52.513 53.333z" />
<glyph unicode="&#xe6a2;" glyph-name="cry" d="M1024 384c0 282.77-229.23 512-512 512s-512-229.23-512-512c0-282.77 229.23-512 512-512 117.411 0 228.826 39.669 318.768 111.313 10.789 8.594 12.568 24.307 3.974 35.097s-24.307 12.568-35.097 3.974c-81.176-64.662-181.644-100.433-287.646-100.433-255.182 0-462.049 206.866-462.049 462.049s206.866 462.049 462.049 462.049c255.182 0 462.049-206.866 462.049-462.049 0-87.493-24.334-171.337-69.578-243.961-7.294-11.708-3.716-27.111 7.992-34.405s27.111-3.716 34.405 7.992c50.146 80.493 77.132 173.475 77.132 270.374zM337.171 396.488c34.484 0 62.439 27.955 62.439 62.439s-27.955 62.439-62.439 62.439c-34.484 0-62.439-27.955-62.439-62.439s27.955-62.439 62.439-62.439zM711.805 396.488c34.484 0 62.439 27.955 62.439 62.439s-27.955 62.439-62.439 62.439c-34.484 0-62.439-27.955-62.439-62.439s27.955-62.439 62.439-62.439zM352.788 191.215c43.377 34.702 100.364 55.424 171.7 55.424s128.323-20.722 171.7-55.424c26.513-21.21 42.695-42.786 50.444-58.284 6.169-12.337 1.168-27.34-11.169-33.508s-27.34-1.168-33.508 11.169c-0.918 1.835-3.462 6.025-7.788 11.794-7.563 10.085-17.239 20.269-29.183 29.824-34.672 27.737-80.709 44.478-140.495 44.478s-105.824-16.741-140.495-44.478c-11.944-9.555-21.619-19.74-29.183-29.824-4.326-5.768-6.87-9.959-7.788-11.794-6.169-12.337-21.171-17.338-33.508-11.169s-17.338 21.171-11.169 33.508c7.749 15.498 23.931 37.074 50.444 58.284z" />
<glyph unicode="&#xe6a3;" glyph-name="help" d="M1024 384c0 282.77-229.23 512-512 512s-512-229.23-512-512c0-282.77 229.23-512 512-512 117.411 0 228.826 39.669 318.768 111.313 10.789 8.594 12.568 24.307 3.974 35.097s-24.307 12.568-35.097 3.974c-81.176-64.662-181.644-100.433-287.646-100.433-255.182 0-462.049 206.866-462.049 462.049s206.866 462.049 462.049 462.049c255.182 0 462.049-206.866 462.049-462.049 0-87.493-24.334-171.337-69.578-243.961-7.294-11.708-3.716-27.111 7.992-34.405s27.111-3.716 34.405 7.992c50.146 80.493 77.132 173.475 77.132 270.374zM533.079 204.581c18.839 0 34.111-15.255 34.111-34.093v-9.030c0-18.829-15.141-34.093-34.111-34.093v0c-18.839 0-34.111 15.255-34.111 34.093v9.030c0 18.829 15.141 34.093 34.111 34.093v0zM374.634 477.345c0 0 2.674-23.556 28.998-23.556s27.88 23.556 27.88 23.556c-1.744 76.274 33.596 112.493 105.944 108.895 48.156-5.437 73.107-32.62 74.775-81.631-3.337-21.827-21.614-50.050-54.148-84.509-43.075-43.574-64.613-82.591-64.613-117.050v-35.339c0 0 3.305-21.076 27.112-21.076s27.112 21.076 27.112 21.076v24.545c0 28.783 20.628 63.402 61.959 103.458 43.227 39.816 64.689 76.194 64.689 108.895-3.564 90.666-50.811 137.917-142.118 141.595-105.034 1.759-157.589-54.527-157.589-168.859z" />
<glyph unicode="&#xe6a4;" glyph-name="information" d="M1024 384c0 282.77-229.23 512-512 512s-512-229.23-512-512c0-282.77 229.23-512 512-512 117.411 0 228.826 39.669 318.768 111.313 10.789 8.594 12.568 24.307 3.974 35.097s-24.307 12.568-35.097 3.974c-81.176-64.662-181.644-100.433-287.646-100.433-255.182 0-462.049 206.866-462.049 462.049s206.866 462.049 462.049 462.049c255.182 0 462.049-206.866 462.049-462.049 0-87.493-24.334-171.337-69.578-243.961-7.294-11.708-3.716-27.111 7.992-34.405s27.111-3.716 34.405 7.992c50.146 80.493 77.132 173.475 77.132 270.374zM499.512 152.976c0-13.794 11.182-24.976 24.976-24.976s24.976 11.182 24.976 24.976v318.439c0 13.794-11.182 24.976-24.976 24.976s-24.976-11.182-24.976-24.976v-318.439zM499.512 577.561c0-13.794 11.182-24.976 24.976-24.976s24.976 11.182 24.976 24.976v43.707c0 13.794-11.182 24.976-24.976 24.976s-24.976-11.182-24.976-24.976v-43.707z" />
<glyph unicode="&#xe6a5;" glyph-name="less" d="M509.928 508.841c7.241 7.99 17.58 7.897 24.782-0.334l270.569-309.222c7.759-8.867 21.236-9.765 30.103-2.007s9.765 21.236 2.007 30.103l-270.569 309.222c-24 27.429-64.127 27.792-88.507 0.889l-280.786-309.833c-7.912-8.73-7.248-22.222 1.482-30.133s22.222-7.248 30.133 1.482l280.786 309.833z" />
<glyph unicode="&#xe6a6;" glyph-name="moreunfold" d="M478.312 251.841c24.38-26.902 64.507-26.539 88.507 0.889l270.569 309.222c7.759 8.867 6.86 22.345-2.007 30.103s-22.345 6.86-30.103-2.007l-270.569-309.222c-7.202-8.231-17.541-8.324-24.782-0.334l-280.786 309.833c-7.912 8.73-21.403 9.394-30.133 1.482s-9.394-21.403-1.482-30.133l280.786-309.833z" />
<glyph unicode="&#xe6a7;" glyph-name="more" d="M642.174 391.406c7.99-7.241 7.897-17.58-0.334-24.782l-309.222-270.569c-8.867-7.759-9.765-21.236-2.007-30.103s21.236-9.765 30.103-2.007l309.222 270.569c27.429 24 27.792 64.127 0.889 88.507l-309.833 280.786c-8.73 7.912-22.222 7.248-30.133-1.482s-7.248-22.222 1.482-30.133l309.833-280.786z" />
<glyph unicode="&#xe6a8;" glyph-name="pic" d="M475.224 320.207l-35.189-4.072 243.835-154.855 340.129 251.356v274.659c0 79.898-63.689 144.704-142.228 144.704h-881.772v-751.43c0-79.832 63.696-144.57 142.228-144.57h881.772v289.032c0 15.963-12.735 28.903-28.444 28.903s-28.444-12.94-28.444-28.903v-260.129l28.444 28.903h-853.327c-47.11 0-85.339 38.855-85.339 86.764v722.526l-28.444-28.903h853.327c47.103 0 85.339-38.907 85.339-86.898v-259.941l11.714 23.375-312.889-231.226 31.806 1.135-246.744 156.702-243.556-247.484c-11.108-11.287-11.108-29.588 0-40.875s29.118-11.287 40.227 0l227.556 231.226zM341.333 557.419c0 55.87-44.573 101.161-99.556 101.161s-99.556-45.291-99.556-101.161c0-55.87 44.573-101.161 99.556-101.161s99.556 45.291 99.556 101.161zM199.111 557.419c0 23.944 19.103 43.355 42.667 43.355s42.667-19.411 42.667-43.355c0-23.944-19.103-43.355-42.667-43.355s-42.667 19.411-42.667 43.355z" />
<glyph unicode="&#xe6a9;" glyph-name="delete2" d="M972.658 686.652c14.501-0.020 26.273 11.777 26.292 26.35s-11.719 26.402-26.22 26.422l-940.272 1.296c-14.501 0.020-26.273-11.777-26.292-26.35s11.719-26.402 26.22-26.422l940.272-1.296zM180.467-96.356v-26.659l678.881 7.015v722.602c0 14.573-11.755 26.386-26.256 26.386s-26.256-11.813-26.256-26.386v-696.486l25.986 26.385-626.369-6.473 26.526-26.385v709.686c0 14.573-11.755 26.386-26.256 26.386s-26.256-11.813-26.256-26.386v-709.686zM656.41 48.921c0-14.573 11.755-26.386 26.256-26.386s26.256 11.813 26.256 26.386v474.947c0 14.573-11.755 26.386-26.256 26.386s-26.256-11.813-26.256-26.386v-474.947zM341.333 48.921c0-14.573 11.755-26.386 26.256-26.386s26.256 11.813 26.256 26.386v474.947c0 14.573-11.755 26.386-26.256 26.386s-26.256-11.813-26.256-26.386v-474.947zM498.872 48.921c0-14.573 11.755-26.386 26.256-26.386s26.256 11.813 26.256 26.386v474.947c0 14.573-11.755 26.386-26.256 26.386s-26.256-11.813-26.256-26.386v-474.947zM392.148 779.278c0 14.658 11.611 26.358 26.254 26.358h204.524c14.483 0 26.254-11.798 26.254-26.186v-55.095h52.513v55.095c0 43.563-35.311 78.958-78.766 78.958h-204.524c-43.677 0-78.766-35.359-78.766-79.13v-48.589h52.513v48.589z" />
<glyph unicode="&#xe6aa;" glyph-name="refresh" d="M512 896c-282.77 0-512-229.23-512-512s229.23-512 512-512c249.326 0 461.202 179.44 504.153 422.235 1.998 11.294 3.619 22.675 4.857 34.129 1.483 13.714-8.432 26.033-22.146 27.516s-26.033-8.432-27.516-22.146c-1.118-10.337-2.58-20.607-4.383-30.797-38.748-219.035-229.973-380.986-454.966-380.986-255.182 0-462.049 206.866-462.049 462.049s206.866 462.049 462.049 462.049c186.044 0 351.703-110.965 424.293-278.803 5.476-12.66 20.178-18.485 32.838-13.009s18.485 20.178 13.009 32.838c-80.43 185.964-263.997 308.925-470.14 308.925zM958.443 545.753l24.976 24.976h-259.126c-13.794 0-24.976-11.182-24.976-24.976s11.182-24.976 24.976-24.976h259.126c13.794 0 24.976 11.182 24.976 24.976v275.32c0 13.794-11.182 24.976-24.976 24.976s-24.976-11.182-24.976-24.976v-275.32z" />
<glyph unicode="&#xe6ab;" glyph-name="edit" d="M34.155 665.060h-24.976v-623.218c0-69.612 56.069-126.132 124.902-126.132h818.832v509.189c0 13.952-11.182 25.263-24.976 25.263s-24.976-11.311-24.976-25.263v-483.926l24.976 25.263h-793.857c-41.285 0-74.951 33.938-74.951 75.605v597.955l-24.976-25.263h564.783c13.794 0 24.976 11.311 24.976 25.263s-11.182 25.263-24.976 25.263h-564.783zM437.016 302.496l-5.14-6.601-4.798-194.342 184.903 66.433 406.549 537.335-168.544 127.502-412.969-530.327zM839.575 777.605l128.814-97.447-4.876 35.585-386.702-511.103 11.474 8.452-143.693-51.627 33.327-24.437 3.684 149.205-5.348-15.001 397.897 510.972-34.578-4.599zM891.218 585.494l29.257 40.952-112.166 81.989-29.257-40.952 112.166-81.989z" />
<glyph unicode="&#xe6ac;" glyph-name="search" d="M1001.526-95.7c-1.604 4.877-1.604 4.877-2.865 7.168-1.105 1.984-2.368 3.807-3.959 5.878-2.202 2.866-5.279 6.484-9.344 11.034-7.135 7.985-17.534 19.073-31.316 33.434-21.547 22.452-43.133 44.501-95.562 97.794-51.918 52.772-73.698 75.022-95.054 97.279-13.39 13.955-23.439 24.672-30.094 32.12-3.305 3.699-5.68 6.492-6.966 8.165 0.857-1.611 0.857-1.611 2.211-5.59 2.109-7.495 2.109-7.495-6.967-24.755 82.243 79.258 129.721 189.187 129.721 306.774 0 233.285-185.801 422.4-414.999 422.4s-414.999-189.115-414.999-422.4c0-233.285 185.801-422.4 414.999-422.4 5.024 0 10.224 0.235 16.015 0.682 4.139 0.319 7.732 0.664 14.304 1.341 13.307 1.372 18.153 1.762 23.746 1.762 9.499 0 24.567 3.368 46.993 9.585 2.631 0.729 5.329 1.491 8.086 2.281 8.5 2.437 17.191 5.040 25.621 7.643 5.063 1.563 8.929 2.784 11.136 3.493 13.247 4.254 20.598 18.633 16.418 32.116s-18.307 20.965-31.554 16.711c-2.039-0.655-5.73-1.82-10.603-3.325-8.13-2.51-16.509-5.020-24.655-7.355-2.622-0.752-5.182-1.474-7.669-2.164-17.234-4.778-30.689-7.785-33.773-7.785-7.939 0-13.677-0.463-28.813-2.023-6.168-0.636-9.443-0.95-13.035-1.227-4.615-0.356-8.588-0.536-12.216-0.536-201.416 0-364.696 166.192-364.696 371.2s163.28 371.2 364.696 371.2c201.416 0 364.696-166.192 364.696-371.2 0-103.376-41.692-199.909-114.003-269.595-9.255-17.568-9.255-17.568-7.048-25.632 1.589-4.678 1.589-4.678 2.832-6.923 1.101-1.961 2.361-3.776 3.945-5.836 2.21-2.874 5.293-6.499 9.361-11.053 7.146-7.998 17.549-19.093 31.323-33.448 21.563-22.472 43.408-44.789 95.478-97.715 52.278-53.138 73.801-75.123 95.142-97.36 13.398-13.96 23.444-24.672 30.087-32.106 3.296-3.689 5.661-6.47 6.933-8.126-0.938 1.752-0.938 1.752-2.319 5.944-2.072 8.077-2.072 8.077 8.092 25.4-10.608-9.128-11.937-25.28-2.969-36.078s24.838-12.15 35.445-3.022c10.357 17.616 10.357 17.616 8.199 26.25z" />
<glyph unicode="&#xe6ad;" glyph-name="selected" d="M464.248 218.512c9.967-9.161 25.418-8.714 34.838 1.009l299.819 309.441c9.598 9.906 9.349 25.718-0.558 35.316s-25.718 9.349-35.316-0.558l-299.819-309.441 34.838 1.009-181.442 166.771c-10.155 9.334-25.955 8.669-35.29-1.487s-8.669-25.955 1.487-35.29l181.442-166.771z" />
<glyph unicode="&#xe6ae;" glyph-name="set" d="M825.606 248.462l-6.342-12.72 86.064-127.683 3.196 31.083-138.983-135.516 29.5 3.489-138.12 82.292-11.336-4.746c-8.059-3.374-16.262-6.456-24.541-9.221l-13.23-4.419-30.815-145.197 23.85 19.319h-196.574l23.666-18.521-37.138 149.987-11.793 4.583c-7.357 2.86-14.648 5.979-21.817 9.335l-12.173 5.697-131.136-84.024 30.174-3.072-138.983 135.508 3.639-30.405 84.836 135.361-5.281 11.862c-3.668 8.239-7.010 16.651-9.999 25.168l-4.592 13.084-148.474 29.946 19.561-23.9v191.65l-18.796-23.733 153.484 36.122 4.754 11.629c3.43 8.392 7.217 16.675 11.326 24.775l6.429 12.673-81.273 122.451-3.16-30.809 138.161 136.787-29.775-3.534 133.375-80.699 11.425 4.773c6.618 2.765 13.341 5.335 20.123 7.695l12.479 4.342 36.123 145.884-23.666-18.521h196.556l-23.85 19.319 31.628-149.029 12.546-4.682c10.191-3.803 20.214-8.079 29.976-12.79l12.168-5.872 124.879 78.724-29.883 3.033 140.371-134.697-3.683 30.689-83.262-130.727 5.232-11.919c3.598-8.198 6.876-16.57 9.803-25.042l4.386-12.693 147.395-34.685-18.796 23.733v-191.65l19.56 23.9-154.548-31.174-4.971-12c-2.96-7.146-6.192-14.234-9.673-21.215zM857.804 260.346l4.821-23.9 161.375 32.552v230.914l-153.118 36.032-5.585-23.733 23.044 7.963c-3.357 9.714-7.114 19.312-11.241 28.715l-22.325-9.8 20.564-13.098 87.004 136.602-168.544 161.732-129.576-81.686 13.002-20.625 10.596 21.958c-11.117 5.364-22.523 10.231-34.121 14.559l-8.524-22.842 23.85 5.062-32.948 155.249h-235.386l-37.533-151.58 23.666-5.86-8.011 23.027c-7.716-2.685-15.364-5.609-22.896-8.755l9.398-22.497 12.621 20.86-139.046 84.13-165.917-164.267 84.501-127.314 20.314 13.483-21.743 11.031c-4.708-9.28-9.045-18.767-12.977-28.386l22.568-9.225-5.585 23.733-160.050-37.668v-230.913l154.441-31.15 4.82 23.9-23.005-8.074c3.427-9.763 7.257-19.404 11.463-28.852l22.273 9.916-20.659 12.948-88.389-141.029 166.937-162.762 136.127 87.222-13.153 20.528-10.336-22.082c8.156-3.818 16.45-7.366 24.824-10.621l8.832 22.725-23.666-5.86 38.683-156.226h235.404l32.019 150.872-23.85 5.062 7.724-23.125c9.423 3.147 18.754 6.654 27.924 10.493l-9.415 22.49-12.479-20.945 143.653-85.588 166.964 162.799-89.494 132.773-20.217-13.627 21.819-10.879c3.986 7.994 7.689 16.115 11.084 24.311l-22.525 9.331zM731.429 396.19c0 114.454-92.784 207.238-207.238 207.238s-207.238-92.784-207.238-207.238c0-114.454 92.784-207.238 207.238-207.238 29.314 0 57.815 6.105 84.063 17.765 12.306 5.467 17.85 19.874 12.383 32.18s-19.874 17.85-32.18 12.383c-20.044-8.905-41.804-13.566-64.266-13.566-87.524 0-158.476 70.952-158.476 158.476s70.952 158.476 158.476 158.476c87.524 0 158.476-70.952 158.476-158.476 0-11.565-1.235-22.953-3.659-34.038-2.877-13.154 5.455-26.15 18.609-29.027s26.15 5.455 29.027 18.609c3.171 14.501 4.785 29.382 4.785 44.456z" />
<glyph unicode="&#xe6af;" glyph-name="email" d="M972.8-38.275l25.6 25.725h-870.532c-42.366 0-76.668 34.529-76.668 77.286v720.204l-25.6-25.725h870.532c42.32 0 76.668-34.54 76.668-77.077v-64.706c0-14.208 11.462-25.725 25.6-25.725s25.6 11.518 25.6 25.725v64.706c0 70.944-57.263 128.528-127.868 128.528h-896.132v-745.93c0-71.153 57.206-128.737 127.868-128.737h896.132v502.302c0 14.208-11.462 25.725-25.6 25.725s-25.6-11.518-25.6-25.725v-476.576zM512.652 328.835c7.996-5.71 18.536-6.326 27.137-1.586l462.836 255.057c12.397 6.832 16.935 22.468 10.137 34.926s-22.359 17.018-34.756 10.187l-462.836-255.057 27.137-1.586-348.28 248.684c-11.525 8.229-27.507 5.512-35.696-6.070s-5.485-27.642 6.040-35.871l348.28-248.684z" />
<glyph unicode="&#xe6b0;" glyph-name="favorite2" d="M471.864 811.902c13.811 30.163 21.181 30.093 34.224-0.246l113.657-264.368c5.418-12.603 20.222-18.509 33.066-13.193s18.863 19.843 13.445 32.445l-113.657 264.368c-30.206 70.26-94.92 70.878-126.782 1.293l-119.214-260.358c-5.713-12.477-0.036-27.135 12.679-32.741s27.654-0.036 33.367 12.441l119.214 260.358zM946.329 487.517c33.504-3.568 35.713-10.467 10.338-32.014l-221.116-187.76c-10.541-8.951-11.691-24.591-2.569-34.934s25.062-11.472 35.602-2.521l221.116 187.76c58.765 49.9 39.366 110.483-37.925 118.713l-289.19 30.796c-13.858 1.476-26.312-8.351-27.816-21.95s8.511-25.818 22.37-27.294l289.19-30.796zM789.292-62.035c6.895-32.368 0.891-36.562-27.835-19.54l-250.315 148.326c-11.933 7.071-27.448 3.311-34.654-8.398s-3.374-26.933 8.558-34.003l250.315-148.326c66.525-39.42 119.25-2.596 103.343 72.076l-59.516 279.391c-2.852 13.389-16.226 21.974-29.87 19.175s-22.394-15.921-19.542-29.31l59.516-279.391zM232.774-79.365c-29.242-16.437-35.162-12.129-27.541 19.938l66.413 279.431c3.166 13.321-5.273 26.638-18.848 29.744s-27.147-5.174-30.313-18.494l-66.413-279.431c-17.65-74.263 34.334-112.087 101.794-74.168l252.408 141.877c12.096 6.799 16.284 21.932 9.355 33.801s-22.352 15.979-34.447 9.18l-252.408-141.877zM129.994 382.712c-47.892 42.601-47.892 42.601-87.801 78.102-10.328 9.187-26.29 8.419-35.652-1.715s-8.58-25.796 1.747-34.983c39.91-35.501 39.91-35.501 87.801-78.102l127.711-113.604c10.328-9.187 26.29-8.419 35.652 1.715 9.363 10.134 8.58 25.796-1.748 34.983-31.928 28.401-31.928 28.401-127.711 113.604zM180.395 501.737c9.971 0.995 20.266 2.053 30.828 3.164 25.45 2.678 51.3 5.546 76.212 8.415 8.72 1.004 16.7 1.936 23.775 2.773 4.251 0.503 7.25 0.862 8.857 1.056 13.835 1.672 23.67 14.032 21.966 27.608s-14.3 23.226-28.136 21.554c-1.549-0.187-4.524-0.543-8.731-1.041-7.023-0.831-14.95-1.757-23.614-2.755-24.756-2.85-50.444-5.701-75.712-8.36-10.473-1.102-20.677-2.15-30.553-3.136-20.542-2.050-39.363-3.801-56.079-5.2-13.889-1.162-24.189-13.152-23.005-26.781s13.403-23.735 27.293-22.573c17.016 1.423 36.103 3.199 56.9 5.275z" />
<glyph unicode="&#xe6b1;" glyph-name="success" d="M464.248 218.512c9.967-9.161 25.418-8.714 34.838 1.009l299.819 309.441c9.598 9.906 9.349 25.718-0.558 35.316s-25.718 9.349-35.316-0.558l-299.819-309.441 34.838 1.009-181.442 166.771c-10.155 9.334-25.955 8.669-35.29-1.487s-8.669-25.955 1.487-35.29l181.442-166.771zM1024 384c0 282.77-229.23 512-512 512s-512-229.23-512-512c0-282.77 229.23-512 512-512 117.411 0 228.826 39.669 318.768 111.313 10.789 8.594 12.568 24.307 3.974 35.097s-24.307 12.568-35.097 3.974c-81.176-64.662-181.644-100.433-287.646-100.433-255.182 0-462.049 206.866-462.049 462.049s206.866 462.049 462.049 462.049c255.182 0 462.049-206.866 462.049-462.049 0-87.493-24.334-171.337-69.578-243.961-7.294-11.708-3.716-27.111 7.992-34.405s27.111-3.716 34.405 7.992c50.146 80.493 77.132 173.475 77.132 270.374z" />
<glyph unicode="&#xe6b2;" glyph-name="form" d="M835.55 847.238c41.255 0 74.672-32.679 74.672-72.992v-713.213l6.957 16.907-161.778-164.653 17.932 7.474h-584.92c-41.165 0-74.635 32.829-74.635 73.143v877.714l-24.889-24.381h746.661zM64 896v-902.095c0-67.231 55.742-121.905 124.413-121.905h595.509l176.078 179.207v723.040c0 67.262-55.722 121.754-124.45 121.754h-771.55zM736.081 188.952c-41.321 0-74.748-32.572-74.748-73.097v-146.332c0-13.465 11.143-24.381 24.889-24.381s24.889 10.916 24.889 24.381v146.332c0 13.536 11.082 24.335 24.97 24.335h111.919c13.746 0 24.889 10.916 24.889 24.381s-11.143 24.381-24.889 24.381h-111.919zM775.164 676.571c13.746 0 24.889 10.916 24.889 24.381s-11.143 24.381-24.889 24.381h-512.053c-13.746 0-24.889-10.916-24.889-24.381s11.143-24.381 24.889-24.381h512.053zM775.164 530.286c13.746 0 24.889 10.916 24.889 24.381s-11.143 24.381-24.889 24.381h-512.053c-13.746 0-24.889-10.916-24.889-24.381s11.143-24.381 24.889-24.381h512.053zM775.164 359.619c13.746 0 24.889 10.916 24.889 24.381s-11.143 24.381-24.889 24.381h-512.053c-13.746 0-24.889-10.916-24.889-24.381s11.143-24.381 24.889-24.381h512.053z" />
<glyph unicode="&#xe6b3;" glyph-name="help2" d="M1024 384c0 282.77-229.23 512-512 512s-512-229.23-512-512c0-282.77 229.23-512 512-512 117.411 0 228.826 39.669 318.768 111.313 10.789 8.594 12.568 24.307 3.974 35.097s-24.307 12.568-35.097 3.974c-81.176-64.662-181.644-100.433-287.646-100.433-255.182 0-462.049 206.866-462.049 462.049s206.866 462.049 462.049 462.049c255.182 0 462.049-206.866 462.049-462.049 0-87.493-24.334-171.337-69.578-243.961-7.294-11.708-3.716-27.111 7.992-34.405s27.111-3.716 34.405 7.992c50.146 80.493 77.132 173.475 77.132 270.374zM533.079 204.581c18.839 0 34.111-15.255 34.111-34.093v-9.030c0-18.829-15.141-34.093-34.111-34.093v0c-18.839 0-34.111 15.255-34.111 34.093v9.030c0 18.829 15.141 34.093 34.111 34.093v0zM374.634 477.345c0 0 2.674-23.556 28.998-23.556s27.88 23.556 27.88 23.556c-1.744 76.274 33.596 112.493 105.944 108.895 48.156-5.437 73.107-32.62 74.775-81.631-3.337-21.827-21.614-50.050-54.148-84.509-43.075-43.574-64.613-82.591-64.613-117.050v-35.339c0 0 3.305-21.076 27.112-21.076s27.112 21.076 27.112 21.076v24.545c0 28.783 20.628 63.402 61.959 103.458 43.227 39.816 64.689 76.194 64.689 108.895-3.564 90.666-50.811 137.917-142.118 141.595-105.034 1.759-157.589-54.527-157.589-168.859z" />
<glyph unicode="&#xe6b4;" glyph-name="information2" d="M1024 384c0 282.77-229.23 512-512 512s-512-229.23-512-512c0-282.77 229.23-512 512-512 117.411 0 228.826 39.669 318.768 111.313 10.789 8.594 12.568 24.307 3.974 35.097s-24.307 12.568-35.097 3.974c-81.176-64.662-181.644-100.433-287.646-100.433-255.182 0-462.049 206.866-462.049 462.049s206.866 462.049 462.049 462.049c255.182 0 462.049-206.866 462.049-462.049 0-87.493-24.334-171.337-69.578-243.961-7.294-11.708-3.716-27.111 7.992-34.405s27.111-3.716 34.405 7.992c50.146 80.493 77.132 173.475 77.132 270.374zM499.512 152.976c0-13.794 11.182-24.976 24.976-24.976s24.976 11.182 24.976 24.976v318.439c0 13.794-11.182 24.976-24.976 24.976s-24.976-11.182-24.976-24.976v-318.439zM499.512 577.561c0-13.794 11.182-24.976 24.976-24.976s24.976 11.182 24.976 24.976v43.707c0 13.794-11.182 24.976-24.976 24.976s-24.976-11.182-24.976-24.976v-43.707z" />
<glyph unicode="&#xe6b5;" glyph-name="less2" d="M509.928 508.841c7.241 7.99 17.58 7.897 24.782-0.334l270.569-309.222c7.759-8.867 21.236-9.765 30.103-2.007s9.765 21.236 2.007 30.103l-270.569 309.222c-24 27.429-64.127 27.792-88.507 0.889l-280.786-309.833c-7.912-8.73-7.248-22.222 1.482-30.133s22.222-7.248 30.133 1.482l280.786 309.833z" />
<glyph unicode="&#xe6b6;" glyph-name="moreunfold2" d="M478.312 251.841c24.38-26.902 64.507-26.539 88.507 0.889l270.569 309.222c7.759 8.867 6.86 22.345-2.007 30.103s-22.345 6.86-30.103-2.007l-270.569-309.222c-7.202-8.231-17.541-8.324-24.782-0.334l-280.786 309.833c-7.912 8.73-21.403 9.394-30.133 1.482s-9.394-21.403-1.482-30.133l280.786-309.833z" />
<glyph unicode="&#xe6b7;" glyph-name="more2" d="M642.174 391.406c7.99-7.241 7.897-17.58-0.334-24.782l-309.222-270.569c-8.867-7.759-9.765-21.236-2.007-30.103s21.236-9.765 30.103-2.007l309.222 270.569c27.429 24 27.792 64.127 0.889 88.507l-309.833 280.786c-8.73 7.912-22.222 7.248-30.133-1.482s-7.248-22.222 1.482-30.133l309.833-280.786z" />
<glyph unicode="&#xe6b8;" glyph-name="pic2" d="M475.224 320.207l-35.189-4.072 243.835-154.855 340.129 251.356v274.659c0 79.898-63.689 144.704-142.228 144.704h-881.772v-751.43c0-79.832 63.696-144.57 142.228-144.57h881.772v289.032c0 15.963-12.735 28.903-28.444 28.903s-28.444-12.94-28.444-28.903v-260.129l28.444 28.903h-853.327c-47.11 0-85.339 38.855-85.339 86.764v722.526l-28.444-28.903h853.327c47.103 0 85.339-38.907 85.339-86.898v-259.941l11.714 23.375-312.889-231.226 31.806 1.135-246.744 156.702-243.556-247.484c-11.108-11.287-11.108-29.588 0-40.875s29.118-11.287 40.227 0l227.556 231.226zM341.333 557.419c0 55.87-44.573 101.161-99.556 101.161s-99.556-45.291-99.556-101.161c0-55.87 44.573-101.161 99.556-101.161s99.556 45.291 99.556 101.161zM199.111 557.419c0 23.944 19.103 43.355 42.667 43.355s42.667-19.411 42.667-43.355c0-23.944-19.103-43.355-42.667-43.355s-42.667 19.411-42.667 43.355z" />
<glyph unicode="&#xe6b9;" glyph-name="qrcode" d="M390.095 825.756l-24.381 24.455v-342.374l24.381 24.455h-341.333l24.381-24.455v342.374l-24.381-24.455h341.333zM24.381 874.667v-391.285h390.095v391.285h-390.095zM390.095 238.829l-24.381 24.455v-342.374l24.381 24.455h-292.429c-13.554 0-24.524 10.999-24.524 24.599v293.32l-24.381-24.455h341.333zM24.381 287.74v-317.775c0-40.616 32.805-73.509 73.286-73.509h316.81v391.285h-390.095zM926.333 825.756c13.554 0 24.524-10.999 24.524-24.599v-293.32l24.381 24.455h-341.333l24.381-24.455v342.374l-24.381-24.455h292.429zM609.524 874.667v-391.285h390.095v317.775c0 40.616-32.805 73.509-73.286 73.509h-316.81zM975.238 238.829l-24.381 24.455v-342.374l24.381 24.455h-341.333l24.381-24.455v342.374l-24.381-24.455h341.333zM609.524 287.74v-391.285h390.095v391.285h-390.095zM487.619 507.56c0-13.506 10.916-24.455 24.381-24.455s24.381 10.949 24.381 24.455v269.286c0 13.506-10.916 24.455-24.381 24.455s-24.381-10.949-24.381-24.455v-269.286zM585.143 214.629c0 13.506-10.916 24.455-24.381 24.455s-24.381-10.949-24.381-24.455v-293.718c0-13.506 10.916-24.455 24.381-24.455s24.381 10.949 24.381 24.455v293.718zM487.619 116.553c0 13.506-10.916 24.455-24.381 24.455s-24.381-10.949-24.381-24.455v-195.642c0-13.506 10.916-24.455 24.381-24.455s24.381 10.949 24.381 24.455v195.642zM999.619 361.106c13.465 0 24.381 10.949 24.381 24.455s-10.916 24.455-24.381 24.455h-975.238c-13.465 0-24.381-10.949-24.381-24.455s10.916-24.455 24.381-24.455h975.238z" />
<glyph unicode="&#xe6ba;" glyph-name="refresh2" d="M512 896c-282.77 0-512-229.23-512-512s229.23-512 512-512c249.326 0 461.202 179.44 504.153 422.235 1.998 11.294 3.619 22.675 4.857 34.129 1.483 13.714-8.432 26.033-22.146 27.516s-26.033-8.432-27.516-22.146c-1.118-10.337-2.58-20.607-4.383-30.797-38.748-219.035-229.973-380.986-454.966-380.986-255.182 0-462.049 206.866-462.049 462.049s206.866 462.049 462.049 462.049c186.044 0 351.703-110.965 424.293-278.803 5.476-12.66 20.178-18.485 32.838-13.009s18.485 20.178 13.009 32.838c-80.43 185.964-263.997 308.925-470.14 308.925zM958.443 545.753l24.976 24.976h-259.126c-13.794 0-24.976-11.182-24.976-24.976s11.182-24.976 24.976-24.976h259.126c13.794 0 24.976 11.182 24.976 24.976v275.32c0 13.794-11.182 24.976-24.976 24.976s-24.976-11.182-24.976-24.976v-275.32z" />
<glyph unicode="&#xe6bb;" glyph-name="rfq" d="M797.971 404.104l-36.513 0.823 190.272-236.019 18.604 38.738h-143.238v-288.017l23.873 23.814h-167.111l23.873-23.814v166.698c0 13.152-10.688 23.814-23.873 23.814s-23.873-10.662-23.873-23.814v-190.512h214.857v288.017l-23.873-23.814h169.198l-239.268 296.795-228.395-258.484c-8.718-9.867-7.767-24.915 2.124-33.611s24.977-7.748 33.695 2.119l209.649 237.268zM153.857-32.744c-46.628 0-84.778 39.358-84.778 88.258v816.673l-23.873-23.814h702.881c46.666 0 84.928-39.524 84.928-88.476v-426.488h47.746v426.488c0 74.891-59.258 136.104-132.674 136.104h-726.754v-840.487c0-74.852 59.16-135.886 132.524-135.886h533.451v47.628h-533.451zM735.286 514.977c13.185 0 23.873 10.662 23.873 23.814s-10.688 23.814-23.873 23.814h-545.886c-13.185 0-23.873-10.662-23.873-23.814s10.688-23.814 23.873-23.814h545.886zM737.956 657.86c13.185 0 23.873 10.662 23.873 23.814s-10.688 23.814-23.873 23.814h-545.886c-13.185 0-23.873-10.662-23.873-23.814s10.688-23.814 23.873-23.814h545.886z" />
<glyph unicode="&#xe6bc;" glyph-name="search2" d="M1001.526-95.7c-1.604 4.877-1.604 4.877-2.865 7.168-1.105 1.984-2.368 3.807-3.959 5.878-2.202 2.866-5.279 6.484-9.344 11.034-7.135 7.985-17.534 19.073-31.316 33.434-21.547 22.452-43.133 44.501-95.562 97.794-51.918 52.772-73.698 75.022-95.054 97.279-13.39 13.955-23.439 24.672-30.094 32.12-3.305 3.699-5.68 6.492-6.966 8.165 0.857-1.611 0.857-1.611 2.211-5.59 2.109-7.495 2.109-7.495-6.967-24.755 82.243 79.258 129.721 189.187 129.721 306.774 0 233.285-185.801 422.4-414.999 422.4s-414.999-189.115-414.999-422.4c0-233.285 185.801-422.4 414.999-422.4 5.024 0 10.224 0.235 16.015 0.682 4.139 0.319 7.732 0.664 14.304 1.341 13.307 1.372 18.153 1.762 23.746 1.762 9.499 0 24.567 3.368 46.993 9.585 2.631 0.729 5.329 1.491 8.086 2.281 8.5 2.437 17.191 5.040 25.621 7.643 5.063 1.563 8.929 2.784 11.136 3.493 13.247 4.254 20.598 18.633 16.418 32.116s-18.307 20.965-31.554 16.711c-2.039-0.655-5.73-1.82-10.603-3.325-8.13-2.51-16.509-5.020-24.655-7.355-2.622-0.752-5.182-1.474-7.669-2.164-17.234-4.778-30.689-7.785-33.773-7.785-7.939 0-13.677-0.463-28.813-2.023-6.168-0.636-9.443-0.95-13.035-1.227-4.615-0.356-8.588-0.536-12.216-0.536-201.416 0-364.696 166.192-364.696 371.2s163.28 371.2 364.696 371.2c201.416 0 364.696-166.192 364.696-371.2 0-103.376-41.692-199.909-114.003-269.595-9.255-17.568-9.255-17.568-7.048-25.632 1.589-4.678 1.589-4.678 2.832-6.923 1.101-1.961 2.361-3.776 3.945-5.836 2.21-2.874 5.293-6.499 9.361-11.053 7.146-7.998 17.549-19.093 31.323-33.448 21.563-22.472 43.408-44.789 95.478-97.715 52.278-53.138 73.801-75.123 95.142-97.36 13.398-13.96 23.444-24.672 30.087-32.106 3.296-3.689 5.661-6.47 6.933-8.126-0.938 1.752-0.938 1.752-2.319 5.944-2.072 8.077-2.072 8.077 8.092 25.4-10.608-9.128-11.937-25.28-2.969-36.078s24.838-12.15 35.445-3.022c10.357 17.616 10.357 17.616 8.199 26.25z" />
<glyph unicode="&#xe6bd;" glyph-name="selected2" d="M464.248 218.512c9.967-9.161 25.418-8.714 34.838 1.009l299.819 309.441c9.598 9.906 9.349 25.718-0.558 35.316s-25.718 9.349-35.316-0.558l-299.819-309.441 34.838 1.009-181.442 166.771c-10.155 9.334-25.955 8.669-35.29-1.487s-8.669-25.955 1.487-35.29l181.442-166.771z" />
<glyph unicode="&#xe6be;" glyph-name="set2" d="M825.606 248.462l-6.342-12.72 86.064-127.683 3.196 31.083-138.983-135.516 29.5 3.489-138.12 82.292-11.336-4.746c-8.059-3.374-16.262-6.456-24.541-9.221l-13.23-4.419-30.815-145.197 23.85 19.319h-196.574l23.666-18.521-37.138 149.987-11.793 4.583c-7.357 2.86-14.648 5.979-21.817 9.335l-12.173 5.697-131.136-84.024 30.174-3.072-138.983 135.508 3.639-30.405 84.836 135.361-5.281 11.862c-3.668 8.239-7.010 16.651-9.999 25.168l-4.592 13.084-148.474 29.946 19.561-23.9v191.65l-18.796-23.733 153.484 36.122 4.754 11.629c3.43 8.392 7.217 16.675 11.326 24.775l6.429 12.673-81.273 122.451-3.16-30.809 138.161 136.787-29.775-3.534 133.375-80.699 11.425 4.773c6.618 2.765 13.341 5.335 20.123 7.695l12.479 4.342 36.123 145.884-23.666-18.521h196.556l-23.85 19.319 31.628-149.029 12.546-4.682c10.191-3.803 20.214-8.079 29.976-12.79l12.168-5.872 124.879 78.724-29.883 3.033 140.371-134.697-3.683 30.689-83.262-130.727 5.232-11.919c3.598-8.198 6.876-16.57 9.803-25.042l4.386-12.693 147.395-34.685-18.796 23.733v-191.65l19.56 23.9-154.548-31.174-4.971-12c-2.96-7.146-6.192-14.234-9.673-21.215zM857.804 260.346l4.821-23.9 161.375 32.552v230.914l-153.118 36.032-5.585-23.733 23.044 7.963c-3.357 9.714-7.114 19.312-11.241 28.715l-22.325-9.8 20.564-13.098 87.004 136.602-168.544 161.732-129.576-81.686 13.002-20.625 10.596 21.958c-11.117 5.364-22.523 10.231-34.121 14.559l-8.524-22.842 23.85 5.062-32.948 155.249h-235.386l-37.533-151.58 23.666-5.86-8.011 23.027c-7.716-2.685-15.364-5.609-22.896-8.755l9.398-22.497 12.621 20.86-139.046 84.13-165.917-164.267 84.501-127.314 20.314 13.483-21.743 11.031c-4.708-9.28-9.045-18.767-12.977-28.386l22.568-9.225-5.585 23.733-160.050-37.668v-230.913l154.441-31.15 4.82 23.9-23.005-8.074c3.427-9.763 7.257-19.404 11.463-28.852l22.273 9.916-20.659 12.948-88.389-141.029 166.937-162.762 136.127 87.222-13.153 20.528-10.336-22.082c8.156-3.818 16.45-7.366 24.824-10.621l8.832 22.725-23.666-5.86 38.683-156.226h235.404l32.019 150.872-23.85 5.062 7.724-23.125c9.423 3.147 18.754 6.654 27.924 10.493l-9.415 22.49-12.479-20.945 143.653-85.588 166.964 162.799-89.494 132.773-20.217-13.627 21.819-10.879c3.986 7.994 7.689 16.115 11.084 24.311l-22.525 9.331zM731.429 396.19c0 114.454-92.784 207.238-207.238 207.238s-207.238-92.784-207.238-207.238c0-114.454 92.784-207.238 207.238-207.238 29.314 0 57.815 6.105 84.063 17.765 12.306 5.467 17.85 19.874 12.383 32.18s-19.874 17.85-32.18 12.383c-20.044-8.905-41.804-13.566-64.266-13.566-87.524 0-158.476 70.952-158.476 158.476s70.952 158.476 158.476 158.476c87.524 0 158.476-70.952 158.476-158.476 0-11.565-1.235-22.953-3.659-34.038-2.877-13.154 5.455-26.15 18.609-29.027s26.15 5.455 29.027 18.609c3.171 14.501 4.785 29.382 4.785 44.456z" />
<glyph unicode="&#xe6bf;" glyph-name="smile" d="M1024 384c0 282.77-229.23 512-512 512s-512-229.23-512-512c0-282.77 229.23-512 512-512 117.411 0 228.826 39.669 318.768 111.313 10.789 8.594 12.568 24.307 3.974 35.097s-24.307 12.568-35.097 3.974c-81.176-64.662-181.644-100.433-287.646-100.433-255.182 0-462.049 206.866-462.049 462.049s206.866 462.049 462.049 462.049c255.182 0 462.049-206.866 462.049-462.049 0-87.493-24.334-171.337-69.578-243.961-7.294-11.708-3.716-27.111 7.992-34.405s27.111-3.716 34.405 7.992c50.146 80.493 77.132 173.475 77.132 270.374zM337.171 396.488c34.484 0 62.439 27.955 62.439 62.439s-27.955 62.439-62.439 62.439c-34.484 0-62.439-27.955-62.439-62.439s27.955-62.439 62.439-62.439zM711.805 396.488c34.484 0 62.439 27.955 62.439 62.439s-27.955 62.439-62.439 62.439c-34.484 0-62.439-27.955-62.439-62.439s27.955-62.439 62.439-62.439zM352.788 127.229c43.377-34.702 100.364-55.424 171.7-55.424s128.323 20.722 171.7 55.424c26.513 21.21 42.695 42.786 50.444 58.284 6.169 12.337 1.168 27.34-11.169 33.508s-27.34 1.168-33.508-11.169c-0.918-1.835-3.462-6.025-7.788-11.794-7.563-10.085-17.239-20.269-29.183-29.824-34.672-27.737-80.709-44.478-140.495-44.478s-105.824 16.741-140.495 44.478c-11.944 9.555-21.619 19.74-29.183 29.824-4.326 5.768-6.87 9.959-7.788 11.794-6.169 12.337-21.171 17.338-33.508 11.169s-17.338-21.171-11.169-33.508c7.749-15.498 23.931-37.074 50.444-58.284z" />
<glyph unicode="&#xe6c0;" glyph-name="success2" d="M464.248 218.512c9.967-9.161 25.418-8.714 34.838 1.009l299.819 309.441c9.598 9.906 9.349 25.718-0.558 35.316s-25.718 9.349-35.316-0.558l-299.819-309.441 34.838 1.009-181.442 166.771c-10.155 9.334-25.955 8.669-35.29-1.487s-8.669-25.955 1.487-35.29l181.442-166.771zM1024 384c0 282.77-229.23 512-512 512s-512-229.23-512-512c0-282.77 229.23-512 512-512 117.411 0 228.826 39.669 318.768 111.313 10.789 8.594 12.568 24.307 3.974 35.097s-24.307 12.568-35.097 3.974c-81.176-64.662-181.644-100.433-287.646-100.433-255.182 0-462.049 206.866-462.049 462.049s206.866 462.049 462.049 462.049c255.182 0 462.049-206.866 462.049-462.049 0-87.493-24.334-171.337-69.578-243.961-7.294-11.708-3.716-27.111 7.992-34.405s27.111-3.716 34.405 7.992c50.146 80.493 77.132 173.475 77.132 270.374z" />
<glyph unicode="&#xe6c1;" glyph-name="survey" d="M722.356 849.455c38.65 0 70.025-31.289 70.025-69.827v-342.126l6.7 16.312-397.206-402.592 16.665 6.96h-280.47c-38.682 0-70.007 31.147-70.007 69.59v744.956l-23.365-23.273h677.657zM21.333 896v-768.229c0-64.167 52.264-116.135 116.737-116.135h290.267l410.774 416.343v351.648c0 64.232-52.284 116.373-116.755 116.373h-701.022zM775.859 307.365l-16.522-16.456 126.504-126.004 103.138 102.731-126.504 126.004-86.617-86.274zM845.955 344.271l93.46-93.091v32.913l-70.095-69.818h33.043l-93.46 93.091v-32.913l70.095 69.818h-33.043zM518.843 51.365l-5.002-4.983-31.626-157.504 158.129 31.501 278.54 277.439-126.504 126.004-273.537-272.456zM775.859 274.453l93.46-93.091v32.913l-257.016-256 11.939 6.364-116.825-23.273 27.494-27.385 23.365 116.364-6.39-11.892 257.016 256h-33.043zM426.577 298.269c17.624 0 31.912-14.215 31.912-31.768v-8.415c0-17.545-14.165-31.768-31.912-31.768v0c-17.624 0-31.912 14.215-31.912 31.768v8.415c0 17.545 14.165 31.768 31.912 31.768v0zM278.349 552.435c0 0 2.502-21.95 27.128-21.95s26.082 21.95 26.082 21.95c-1.632 71.074 31.429 104.823 99.112 101.47 45.051-5.066 68.393-30.396 69.953-76.065-3.122-20.339-20.22-46.638-50.656-78.747-40.298-40.603-60.447-76.959-60.447-109.069v-32.929c0 0 3.092-19.639 25.363-19.639s25.363 19.639 25.363 19.639v22.872c0 26.82 19.297 59.079 57.963 96.404 40.44 37.101 60.517 70.999 60.517 101.47-3.334 84.484-47.534 128.514-132.954 131.941-98.261 1.639-147.427-50.81-147.427-157.346z" />
<glyph unicode="&#xe6c2;" glyph-name="account" d="M793.6 579.009c0 163.287-131.807 295.658-294.4 295.658s-294.4-132.371-294.4-295.658c0-163.287 131.807-295.658 294.4-295.658s294.4 132.371 294.4 295.658zM256 579.009c0 134.89 108.884 244.239 243.2 244.239s243.2-109.35 243.2-244.239c0-134.89-108.884-244.239-243.2-244.239s-243.2 109.35-243.2 244.239zM0-102.291v-25.709h1024v25.709c0 230.828-236.909 437.060-512 437.060-16.552 0-33.011-0.67-49.339-2.002-14.092-1.149 22.595-13.554 23.739-27.706 14.95 1.219 10.431-21.711 25.6-21.711 248.311 0 460.8-184.974 460.8-385.641l25.6 25.709h-972.8l25.6-25.709c0 136.533 85.814 261.345 224.064 330.852 12.643 6.356 17.761 21.802 11.432 34.498s-21.709 17.837-34.352 11.48c-154.762-77.808-252.344-219.736-252.344-376.83z" />
<glyph unicode="&#xe6c3;" glyph-name="all3" d="M460.8 409.6h25.6v243.2c0 134.316-108.884 243.2-243.2 243.2s-243.2-108.884-243.2-243.2c0-134.316 108.884-243.2 243.2-243.2h217.6zM51.2 652.8c0 106.039 85.961 192 192 192s192-85.961 192-192v-217.6l25.6 25.6h-217.6c-106.039 0-192 85.961-192 192zM460.8 307.2l-25.6 25.6v-217.6c0-106.039-85.961-192-192-192s-192 85.961-192 192c0 106.039 85.961 192 192 192h217.6zM0 115.2c0-134.316 108.884-243.2 243.2-243.2s243.2 108.884 243.2 243.2v243.2h-243.2c-134.316 0-243.2-108.884-243.2-243.2zM563.2 460.8l25.6-25.6v217.6c0 106.039 85.961 192 192 192s192-85.961 192-192c0-106.039-85.961-192-192-192h-217.6zM1024 652.8c0 134.316-108.884 243.2-243.2 243.2s-243.2-108.884-243.2-243.2v-243.2h243.2c134.316 0 243.2 108.884 243.2 243.2zM1024 115.2c0 134.316-108.884 243.2-243.2 243.2h-243.2v-243.2c0-134.316 108.884-243.2 243.2-243.2 37.713 0 74.251 8.609 107.379 24.935 12.682 6.25 17.897 21.597 11.647 34.279s-21.597 17.897-34.279 11.647c-26.126-12.875-54.926-19.661-84.747-19.661-106.039 0-192 85.961-192 192v217.6l-25.6-25.6h217.6c106.039 0 192-85.961 192-192 0-18.67-2.657-36.956-7.832-54.479-4.004-13.56 3.742-27.798 17.302-31.802s27.798 3.742 31.802 17.302c6.561 22.219 9.928 45.388 9.928 68.979z" />
<glyph unicode="&#xe6c4;" glyph-name="back3" d="M363.841 423.021c-26.902-24.38-26.539-64.507 0.889-88.507l309.222-270.569c8.867-7.759 22.345-6.86 30.103 2.007s6.86 22.345-2.007 30.103l-309.222 270.569c-8.231 7.202-8.324 17.541-0.334 24.782l309.833 280.786c8.73 7.912 9.394 21.403 1.482 30.133s-21.403 9.394-30.133 1.482l-309.833-280.786z" />
</font>
</defs>
</svg>
